<svg id="Layer_1" xmlns="http://www.w3.org/2000/svg" viewBox="0 0 716.6 97.7"><style>.st0{fill-rule:evenodd;clip-rule:evenodd;fill:#fff}</style><path class="st0" d="M8.8 1.6H2.2C1 1.6 0 2.6 0 3.8V94c0 1.2 1 2.2 2.2 2.2h6.6c1.2 0 2.2-1 2.2-2.2V3.8c0-1.2-1-2.2-2.2-2.2zM127.3 1.6H121c-1.2 0-2.2 1-2.2 2.2v71.4c0 1.2-.6 1.4-1.4.5L58.6 3.3c-.8-.9-2.4-1.7-3.6-1.7h-5.9c-1.2 0-2.2 1-2.2 2.2V94c0 1.2 1 2.2 2.2 2.2h6.3c1.2 0 2.2-1 2.2-2.2V20.8c0-1.2.6-1.4 1.4-.5l60.3 74.1c.8.9 2.4 1.7 3.6 1.7h4.3c1.2 0 2.2-1 2.2-2.2V3.8c.2-1.2-.9-2.2-2.1-2.2zM224.7 1.6h-72.3c-1.2 0-2.2 1-2.2 2.2v5.5c0 1.2 1 2.2 2.2 2.2h28.3c1.2 0 2.2 1 2.2 2.2V94c0 1.2 1 2.2 2.2 2.2h6.7c1.2 0 2.2-1 2.2-2.2V13.6c0-1.2 1-2.2 2.2-2.2h28.3c1.2 0 2.2-1 2.2-2.2V3.8c.3-1.2-.7-2.2-2-2.2zM316.7 86.4h-55.8c-1.2 0-2.2-1-2.2-2.2V55.5c0-1.2 1-2.2 2.2-2.2H303c1.2 0 2.2-1 2.2-2.2v-5.4c0-1.2-1-2.2-2.2-2.2h-42.1c-1.2 0-2.2-1-2.2-2.2V13.5c0-1.2 1-2.2 2.2-2.2H316c1.2 0 2.2-1 2.2-2.2V3.8c0-1.2-1-2.2-2.2-2.2h-66.1c-1.2 0-2.2 1-2.2 2.2V94c0 1.2 1 2.2 2.2 2.2h66.8c1.2 0 2.2-1 2.2-2.2v-5.4c.1-1.2-.9-2.2-2.2-2.2zM508.7 1.6h-72.3c-1.2 0-2.2 1-2.2 2.2v5.5c0 1.2 1 2.2 2.2 2.2h28.3c1.2 0 2.2 1 2.2 2.2V94c0 1.2 1 2.2 2.2 2.2h6.7c1.2 0 2.2-1 2.2-2.2V13.6c0-1.2 1-2.2 2.2-2.2h28.3c1.2 0 2.2-1 2.2-2.2V3.8c.2-1.2-.8-2.2-2-2.2zM570.5 0c-29.7 0-50 22.8-50 49s20 48.7 49.7 48.7c29.7 0 50-22.8 50-49 0-26.1-20-48.7-49.7-48.7zm0 87.9c-22.3 0-38.5-17.5-38.5-39.1s15.9-38.9 38.2-38.9c22.3 0 38.5 17.5 38.5 39.1s-15.9 38.9-38.2 38.9zM402.9 71.5l-10.9-14c15.3-2.7 26.5-11.9 26.5-27.7 0-17-13.8-28.2-35.3-28.2h-39.8c-1.2 0-2.2 1-2.2 2.2V94c0 1.2 1 2.2 2.2 2.2h6.6c1.2 0 2.2-1 2.2-2.2V13.6c0-1.2 1-2.2 2.2-2.2h27.9c15.8 0 25 7 25 18.8 0 11.9-8.8 17.8-23 19.8-1.6.2-6.1.3-5.9 5.2.1 1.7 1.4 3.6 1.4 3.6.6 1 1.2 1.8 1.6 2.3l5.7 7.4 2.3 3L407 94.4c.7 1 2.3 1.7 3.6 1.7h9.1c1.2 0 1.6-.8.9-1.7l-17.7-22.9zM680.1 1.6h-34.3c-1.2 0-2.2 1-2.2 2.2V94c0 1.2 1 2.2 2.2 2.2h6.6c1.2 0 2.2-1 2.2-2.2V13.6c0-1.2 1-2.2 2.2-2.2h22.5c15.8 0 26.2 7 26.2 20.7 0 11.7-9.2 19.8-23.6 20.8h-3.1c-1.2 0-2.2 1-2.2 2.2v5.4c0 1.2 1 2.2 2.2 2.2h3.4c19.4-.7 34.5-11.7 34.5-30.9-.1-18.8-14.6-30.2-36.6-30.2z"/></svg>