<?xml version="1.0" encoding="iso-8859-1"?>
<!-- Generator: Adobe Illustrator 21.0.0, SVG Export Plug-In . SVG Version: 6.00 Build 0)  -->
<svg version="1.1" id="&#x421;&#x43B;&#x43E;&#x439;_1"
	 xmlns="http://www.w3.org/2000/svg" xmlns:xlink="http://www.w3.org/1999/xlink" x="0px" y="0px" viewBox="0 0 10 10"
	 style="enable-background:new 0 0 10 10;" xml:space="preserve">
<path d="M0,5c0-0.26,0.102-0.516,0.293-0.707l4-4c0.391-0.391,1.023-0.391,1.414,0s0.391,1.023,0,1.414L3.414,4H9
	c0.552,0,1,0.448,1,1c0,0.553-0.448,1-1,1H1C0.596,6,0.23,5.757,0.076,5.383C0.024,5.259,0,5.129,0,5z"/>
<path d="M0,5c0-0.129,0.024-0.259,0.076-0.383C0.23,4.244,0.596,4,1,4h8c0.552,0,1,0.448,1,1c0,0.553-0.448,1-1,1H3.414l2.293,2.293
	c0.391,0.391,0.391,1.023,0,1.414s-1.023,0.391-1.414,0l-4-4C0.102,5.516,0,5.26,0,5z"/>
</svg>
