<?xml version="1.0" encoding="iso-8859-1"?>
<!-- Generator: Adobe Illustrator 21.0.0, SVG Export Plug-In . SVG Version: 6.00 Build 0)  -->
<svg version="1.1" id="&#x421;&#x43B;&#x43E;&#x439;_1"
	 xmlns="http://www.w3.org/2000/svg" xmlns:xlink="http://www.w3.org/1999/xlink" x="0px" y="0px" viewBox="0 0 10 10"
	 style="enable-background:new 0 0 10 10;" xml:space="preserve">
<path d="M10,5c0,0.26-0.102,0.516-0.293,0.707l-4,4c-0.391,0.391-1.023,0.391-1.414,0s-0.391-1.023,0-1.414L6.586,6H1
	C0.448,6,0,5.552,0,5c0-0.553,0.448-1,1-1h8c0.404,0,0.77,0.243,0.924,0.617C9.976,4.741,10,4.871,10,5z"/>
<path d="M10,5c0,0.129-0.024,0.259-0.076,0.383C9.77,5.756,9.404,6,9,6H1C0.448,6,0,5.552,0,5c0-0.553,0.448-1,1-1h5.586
	L4.293,1.707c-0.391-0.391-0.391-1.023,0-1.414s1.023-0.391,1.414,0l4,4C9.898,4.484,10,4.74,10,5z"/>
</svg>
