<?xml version="1.0" encoding="utf-8"?>
<!-- Generator: Adobe Illustrator 21.0.0, SVG Export Plug-In . SVG Version: 6.00 Build 0)  -->
<svg version="1.1" id="Capa_1" xmlns="http://www.w3.org/2000/svg" xmlns:xlink="http://www.w3.org/1999/xlink" x="0px" y="0px"
	 viewBox="0 0 47 47" style="enable-background:new 0 0 47 47;" xml:space="preserve">
<g>
	<g id="Layer_1_78_">
		<g>
			<path d="M44.8,42.7H2.1c-1.2,0-2.1,1-2.1,2.1C0,46,1,47,2.1,47h42.7c1.2,0,2.1-1,2.1-2.1C47,43.7,46,42.7,44.8,42.7z"/>
			<path d="M4.8,37.2c-1.2,0-2.1,1-2.1,2.1s1,2.1,2.1,2.1h37.4c1.2,0,2.1-1,2.1-2.1s-1-2.1-2.1-2.1h-0.5V17.9h0.5
				c0.6,0,1.1-0.5,1.1-1.1s-0.5-1.1-1.1-1.1H4.8c-0.6,0-1.1,0.5-1.1,1.1s0.5,1.1,1.1,1.1h0.5v19.2L4.8,37.2L4.8,37.2z M37.4,17.9
				v19.2H31V17.9H37.4z M26.7,17.9v19.2h-6.4V17.9H26.7z M9.6,17.9H16v19.2H9.6V17.9z"/>
			<path d="M2.1,13.9h42.7c0,0,0,0,0,0c1.2,0,2.1-1,2.1-2.1c0-0.9-0.6-1.7-1.4-2L24.4,0.2c-0.6-0.3-1.2-0.3-1.8,0L1.3,9.8
				c-0.9,0.4-1.4,1.4-1.2,2.4C0.3,13.2,1.1,13.9,2.1,13.9z"/>
		</g>
	</g>
</g>
</svg>
