<?xml version="1.0" encoding="iso-8859-1"?>
<!-- Generator: Adobe Illustrator 21.0.0, SVG Export Plug-In . SVG Version: 6.00 Build 0)  -->
<svg version="1.1" id="&#x421;&#x43B;&#x43E;&#x439;_1"
	 xmlns="http://www.w3.org/2000/svg" xmlns:xlink="http://www.w3.org/1999/xlink" x="0px" y="0px" viewBox="0 0 93.36 93.36"
	 style="enable-background:new 0 0 93.36 93.36;" xml:space="preserve">
<path d="M47.753,75.428H35.502c-1.381,0-2.5-1.119-2.5-2.5s1.119-2.5,2.5-2.5h9.751V11.432H5.002v58.997h7.5
	c1.381,0,2.5,1.119,2.5,2.5s-1.119,2.5-2.5,2.5h-10c-1.381,0-2.5-1.119-2.5-2.5V8.932c0-1.381,1.119-2.5,2.5-2.5h45.251
	c1.381,0,2.5,1.119,2.5,2.5v63.997C50.253,74.309,49.134,75.428,47.753,75.428z"/>
<path d="M90.858,75.428h-10c-1.381,0-2.5-1.119-2.5-2.5s1.119-2.5,2.5-2.5h7.5V46.29L71.257,27.598H50.253v42.83h7.605
	c1.381,0,2.5,1.119,2.5,2.5s-1.119,2.5-2.5,2.5H47.753c-1.381,0-2.5-1.119-2.5-2.5v-47.83c0-1.381,1.119-2.5,2.5-2.5h24.605
	c0.701,0,1.371,0.295,1.845,0.813l18.5,20.22c0.422,0.461,0.655,1.063,0.655,1.688v27.61C93.358,74.309,92.239,75.428,90.858,75.428
	z"/>
<path d="M23.998,86.928c-7.72,0-14-6.28-14-14s6.28-14,14-14s14,6.28,14,14S31.718,86.928,23.998,86.928z M23.998,63.928
	c-4.963,0-9,4.038-9,9s4.037,9,9,9s9-4.038,9-9S28.961,63.928,23.998,63.928z"/>
<path d="M69.358,86.928c-7.72,0-14-6.28-14-14s6.28-14,14-14s14,6.28,14,14S77.078,86.928,69.358,86.928z M69.358,63.928
	c-4.963,0-9,4.038-9,9s4.037,9,9,9s9-4.038,9-9S74.321,63.928,69.358,63.928z"/>
</svg>
