<?xml version="1.0" encoding="iso-8859-1"?>
<!-- Generator: Adobe Illustrator 21.0.0, SVG Export Plug-In . SVG Version: 6.00 Build 0)  -->
<svg version="1.1" id="Layer_1" xmlns="http://www.w3.org/2000/svg" xmlns:xlink="http://www.w3.org/1999/xlink" x="0px" y="0px"
	 viewBox="0 0 575 575" style="enable-background:new 0 0 575 575;" xml:space="preserve">
<g>
	<path d="M8.582,383.453h46.219c15.715,27.406,50.676,36.883,78.082,21.164
		c8.808-5.051,16.113-12.359,21.168-21.164h264.941c15.707,27.402,50.66,36.883,78.067,21.176
		c8.898-5.102,16.261-12.504,21.316-21.426c1.09-0.192,2.141-0.57,3.098-1.125l47.922-28.75c2.878-1.735,4.648-4.848,4.648-8.215
		v-86.254c-0.023-1.129-0.254-2.246-0.672-3.3c-0.105-0.282-0.223-0.552-0.355-0.829c-0.133-0.277-0.192-0.546-0.348-0.808
		l-26.039-43.402l7.238-14.461c2.363-4.739,0.442-10.497-4.293-12.86c-0.855-0.422-1.761-0.719-2.703-0.875l-49.293-8.226
		l-23.394-3.891c-114.75-18.809-232.504,0.484-335.254,54.925l-28.254,15.079l-43.129,9.582
		c-29.317,6.457-54.141,25.836-67.512,52.711c-0.672,1.328-1.027,2.789-1.035,4.277v67.086C-1,379.16,3.293,383.453,8.582,383.453
		 M139.52,370.035c-8.508,19.332-31.079,28.109-50.415,19.601c-19.335-8.507-28.113-31.082-19.605-50.414
		c8.512-19.336,31.082-28.113,50.418-19.605c13.906,6.117,22.871,19.891,22.844,35.082c-0.016,5.281-1.125,10.504-3.25,15.336
		H139.52z M503.715,370.035c-8.512,19.332-31.082,28.109-50.418,19.601c-19.332-8.507-28.113-31.082-19.602-50.414
		c8.508-19.336,31.078-28.113,50.414-19.605c13.907,6.117,22.871,19.891,22.844,35.082c-0.015,5.281-1.121,10.504-3.246,15.336
		H503.715z M554.875,287.613h-23.961l-14.379-19.172h38.34V287.613z M361.793,183.145c36.531-1.957,73.164,0.054,109.258,6.011
		l5.035,0.84l-49.774,49.695h-72.609L361.793,183.145z M430.281,258.859c2.543,0,4.981-1.011,6.774-2.809l62.23-62.238l31.629,5.281
		l-3.836,7.559c-1.465,2.934-1.328,6.414,0.367,9.219l20.086,33.402h-50.164c-5.293,0-9.582,4.293-9.582,9.586
		c0,2.075,0.672,4.09,1.918,5.75l28.75,38.336c1.813,2.414,4.649,3.836,7.668,3.836h28.754v32.907l-28.754,17.28
		c0-0.757,0.047-1.511,0.047-2.269c0-31.758-25.746-57.504-57.5-57.504c-31.762,0-57.508,25.746-57.508,57.504
		c0.02,2.871,0.266,5.739,0.731,8.566c0.047,0.336,0,0.684,0.078,1.02h-76.063l15.059-105.426H430.281z M342.234,184.487
		l-7.89,55.204H152.395C211.484,209.121,275.965,190.371,342.234,184.487 M18.168,325.945h19.168v-19.164H19.578
		c11.211-19.524,30.121-33.419,52.098-38.281l43.386-9.641h216.5l-15.015,105.422H161.121c0-0.336,0-0.68,0.078-1.016
		c0.461-2.832,0.703-5.695,0.731-8.57c0-31.754-25.746-57.5-57.508-57.5c-31.754,0-57.5,25.746-57.5,57.5
		c0.019,2.875,0.266,5.738,0.73,8.57c0.047,0.336,0,0.68,0.075,1.016H18.168V325.945z"/>
</g>
</svg>
