<?xml version="1.0" encoding="iso-8859-1"?>
<!-- Generator: Adobe Illustrator 21.0.0, SVG Export Plug-In . SVG Version: 6.00 Build 0)  -->
<svg version="1.1" id="&#x421;&#x43B;&#x43E;&#x439;_1"
	 xmlns="http://www.w3.org/2000/svg" xmlns:xlink="http://www.w3.org/1999/xlink" x="0px" y="0px" viewBox="0 0 396.64 396.64"
	 style="enable-background:new 0 0 396.64 396.64;" xml:space="preserve">
<g>
	<g>
		<g>
			<path d="M122.079,232.437h231.043l40.879-145.918h-60.16L312.239,19.8L222.161,49l12.32,37.519h-4.242L208.001,19.8L117.923,49
				l12.316,37.519h-48.16l-10-40c-5.039-20-22.476-34.16-42.558-34.16H2.001v16.719h27.52c12.48,0,23.359,8.32,26.718,20.883
				l44.242,173.117c-9.121,6.562-15.121,17.281-15.121,29.519c0,20,16.719,36.723,36.719,36.723h225.203v-16.723H122.079
				c-10.879,0-20-9.199-20-20C102.079,241.64,111.282,232.437,122.079,232.437L122.079,232.437z M301.442,40.597l15.039,45.043
				h-65.039l-9.203-25.84L301.442,40.597z M197.2,40.597l15.039,45.043H147.2l-9.199-25.84L197.2,40.597z M372.321,102.359
				L340.642,215.8h-225.2L86.239,102.359H372.321z M372.321,102.359"/>
			<path d="M349.283,291.32H122.079c-20.988,0-38.719-17.732-38.719-38.723c0-11.854,5.527-23.087,14.852-30.32L54.302,50.456
				c-3.097-11.582-13.058-19.378-24.78-19.378H0.001V10.359h29.52c20.908,0,39.206,14.668,44.498,35.671l9.622,38.489h43.836
				l-12.081-36.803l93.875-30.431l22.448,67.233l-12.085-36.802l93.891-30.437l21.771,67.239h61.343l-42,149.918h-232.56
				c-9.757,0-18,8.316-18,18.16c0,9.757,8.243,18,18,18h227.203V291.32z M4.001,27.078h25.52c13.56,0,25.073,8.988,28.65,22.367
				l44.585,174.46l-1.107,0.796c-8.947,6.438-14.289,16.866-14.289,27.896c0,18.821,15.899,34.723,34.719,34.723h223.203v-12.723
				H122.079c-11.925,0-22-10.075-22-22c0-12.012,10.075-22.16,22-22.16h229.526l39.758-141.918h-58.978l-21.433-66.2l-86.266,27.964
				l12.556,38.236h-8.445l-22.067-66.205l-86.281,27.97l12.551,38.235H80.518L70.139,47.004
				c-4.842-19.219-21.545-32.645-40.618-32.645H4.001V27.078z M342.16,217.8H113.892L83.659,100.359h291.297L342.16,217.8z
				 M116.993,213.8h222.132l30.563-109.441H88.819L116.993,213.8z M319.258,87.64h-69.227l-10.366-29.107l63.047-20.45
				L319.258,87.64z M252.854,83.64h60.852l-13.532-40.529l-55.359,17.957L252.854,83.64z M215.016,87.64h-69.227l-10.362-29.107
				l63.043-20.45L215.016,87.64z M148.612,83.64h60.852l-13.532-40.529l-55.356,17.957L148.612,83.64z"/>
		</g>
	</g>
	<g>
		<path d="M273.923,314.199c-19.203,0-35.043,15.84-35.043,35.039s15.84,35.043,35.043,35.043c20,0,35.039-15.844,35.039-35.043
			S293.122,314.199,273.923,314.199L273.923,314.199z M273.923,368.437c-10.883,0-19.203-9.199-19.203-19.199
			c0-10.879,9.203-19.199,19.203-19.199c10.879,0,19.199,8.32,19.199,19.199C293.122,360.121,283.923,368.437,273.923,368.437
			L273.923,368.437z M273.923,368.437"/>
		<path d="M273.923,386.281c-20.426,0-37.043-16.617-37.043-37.043c0-20.424,16.617-37.039,37.043-37.039
			c20.424,0,37.039,16.615,37.039,37.039C310.962,370.009,294.693,386.281,273.923,386.281z M273.923,316.199
			c-18.22,0-33.043,14.821-33.043,33.039c0,18.22,14.823,33.043,33.043,33.043c18.526,0,33.039-14.515,33.039-33.043
			C306.962,331.02,292.141,316.199,273.923,316.199z M273.923,370.437c-11.493,0-21.203-9.708-21.203-21.199
			s9.71-21.199,21.203-21.199c11.888,0,21.199,9.312,21.199,21.199C295.122,360.729,285.414,370.437,273.923,370.437z
			 M273.923,332.039c-9.325,0-17.203,7.876-17.203,17.199s7.878,17.199,17.203,17.199c9.323,0,17.199-7.876,17.199-17.199
			C291.122,339.433,283.728,332.039,273.923,332.039z"/>
	</g>
	<g>
		<path d="M145.442,314.199c-19.203,0-35.043,15.84-35.043,35.039s15.84,35.043,35.043,35.043c19.2,0,35.039-15.844,35.039-35.043
			S164.642,314.199,145.442,314.199L145.442,314.199z M145.442,368.437c-10.882,0-19.203-9.199-19.203-19.199
			c0-10.879,9.203-19.199,19.203-19.199c10,0,19.2,8.32,19.2,19.199C164.642,360.121,155.442,368.437,145.442,368.437
			L145.442,368.437z M145.442,368.437"/>
		<path d="M145.442,386.281c-20.426,0-37.043-16.617-37.043-37.043c0-20.424,16.617-37.039,37.043-37.039
			c20.423,0,37.039,16.615,37.039,37.039C182.481,369.664,165.866,386.281,145.442,386.281z M145.442,316.199
			c-18.22,0-33.043,14.821-33.043,33.039c0,18.22,14.823,33.043,33.043,33.043c18.218,0,33.039-14.823,33.039-33.043
			C178.481,331.02,163.66,316.199,145.442,316.199z M145.442,370.437c-11.493,0-21.203-9.708-21.203-21.199
			s9.71-21.199,21.203-21.199c11.492,0,21.2,9.708,21.2,21.199S156.934,370.437,145.442,370.437z M145.442,332.039
			c-9.325,0-17.203,7.876-17.203,17.199s7.878,17.199,17.203,17.199c9.323,0,17.2-7.876,17.2-17.199
			S154.766,332.039,145.442,332.039z"/>
	</g>
</g>
</svg>
