<?xml version="1.0" encoding="utf-8"?>
<!-- Generator: Adobe Illustrator 21.0.0, SVG Export Plug-In . SVG Version: 6.00 Build 0)  -->
<svg version="1.1" id="Слой_1" xmlns="http://www.w3.org/2000/svg" xmlns:xlink="http://www.w3.org/1999/xlink" x="0px" y="0px"
	 viewBox="0 0 102.3 102.3" style="enable-background:new 0 0 102.3 102.3;" xml:space="preserve">
<path d="M51.2,5c25.5,0,46.2,20.7,46.2,46.2S76.6,97.3,51.2,97.3S5,76.6,5,51.2S25.7,5,51.2,5 M51.2,0
	C22.9,0,0,22.9,0,51.2s22.9,51.2,51.2,51.2s51.2-22.9,51.2-51.2S79.4,0,51.2,0L51.2,0z"/>
<path d="M43.2,69c-0.6,0-1.3-0.2-1.8-0.7c-1-1-1-2.6,0-3.5L69.2,37c1-1,2.6-1,3.5,0c1,1,1,2.6,0,3.5L45,68.3
	C44.5,68.8,43.8,69,43.2,69z"/>
<path d="M43.2,69c-0.6,0-1.3-0.2-1.8-0.7l-9.9-9.9c-1-1-1-2.6,0-3.5c1-1,2.6-1,3.5,0l9.9,9.9c1,1,1,2.6,0,3.5
	C44.5,68.8,43.8,69,43.2,69z"/>
</svg>
