<?xml version="1.0" encoding="utf-8"?>
<!-- Generator: Adobe Illustrator 21.0.0, SVG Export Plug-In . SVG Version: 6.00 Build 0)  -->
<svg version="1.1" id="Слой_1" xmlns="http://www.w3.org/2000/svg" xmlns:xlink="http://www.w3.org/1999/xlink" x="0px" y="0px"
	 viewBox="0 0 29.3 20.6" style="enable-background:new 0 0 29.3 20.6;" xml:space="preserve">
<path d="M10.2,20.6c-0.4,0-0.8-0.1-1.1-0.4l-8.7-8.7c-0.6-0.6-0.6-1.5,0-2.1C1,8.8,2,8.8,2.6,9.4l8.7,8.7c0.6,0.6,0.6,1.5,0,2.1
	C11,20.5,10.6,20.6,10.2,20.6z"/>
<path d="M10.2,20.6c-0.4,0-0.8-0.1-1.1-0.4c-0.6-0.6-0.6-1.5,0-2.1L26.8,0.4c0.6-0.6,1.5-0.6,2.1,0c0.6,0.6,0.6,1.5,0,2.1L11.2,20.2
	C11,20.5,10.6,20.6,10.2,20.6z"/>
</svg>
