<?xml version="1.0" encoding="utf-8"?>
<!-- Generator: Adobe Illustrator 21.0.0, SVG Export Plug-In . SVG Version: 6.00 Build 0)  -->
<svg version="1.1" id="Layer_1" xmlns="http://www.w3.org/2000/svg" xmlns:xlink="http://www.w3.org/1999/xlink" x="0px" y="0px"
	 viewBox="0 0 57.9 57.9" style="enable-background:new 0 0 57.9 57.9;" xml:space="preserve">

<path d="M24.1,21.2c0.3,0.1,0.5,0.4,0.4,0.8c-0.1,0.3-0.4,0.5-0.8,0.4c-6.1-1.7-9.6-8-7.9-14.1s8-9.6,14.1-7.9
	s9.6,8,7.9,14.1c-1.2,4.2-4.6,7.3-8.8,8.1c-0.3,0.1-0.7-0.2-0.7-0.5s0.2-0.7,0.5-0.7l0,0c5.5-1.1,9.1-6.4,8.1-11.9
	C35.8,4,30.5,0.4,25,1.4s-9.1,6.4-8.1,11.9C17.6,17.1,20.4,20.2,24.1,21.2L24.1,21.2z"/>
<path d="M24.8,33.6c0,0.3-0.4,0.6-0.7,0.5c-0.3,0-0.5-0.3-0.5-0.5V17.8c0-1.6,1.3-2.8,2.8-2.8c1.6,0,2.8,1.3,2.8,2.8V27
	c0,0.3-0.2,0.7-0.5,0.7S28,27.5,28,27.2c0-0.1,0-0.1,0-0.2v-9.2c0-0.9-0.7-1.6-1.6-1.6c-0.9,0-1.6,0.7-1.6,1.6
	C24.8,17.8,24.8,33.6,24.8,33.6z"/>
<path d="M24.8,37.6c0,0.3-0.4,0.6-0.7,0.5c-0.3,0-0.5-0.3-0.5-0.5v-5c0-0.9-0.7-1.6-1.6-1.6c-0.4,0-0.8,0.2-1.1,0.5l0,0
	c-0.3,0.3-0.5,0.7-0.5,1.1v2.2c0,1.8,0.4,3.6,1.3,5.2l2.3,4.4c0.4,0.7,0.7,1.5,0.9,2.2c0.2,0.8,0.3,1.6,0.3,2.4v0.7
	c0,0.3-0.3,0.6-0.6,0.6c-0.3,0-0.6-0.3-0.6-0.6v-0.6c0-0.7-0.1-1.4-0.3-2.1c-0.2-0.7-0.4-1.4-0.8-2l-2.3-4.4
	c-0.9-1.8-1.4-3.7-1.4-5.7v-2.2c0-0.8,0.3-1.5,0.8-2l0,0c1.1-1.1,2.9-1.1,4,0c0.5,0.5,0.8,1.3,0.8,2L24.8,37.6L24.8,37.6z"/>
<path d="M29.2,29.8c0,0.3-0.4,0.6-0.7,0.5c-0.3,0-0.5-0.3-0.5-0.5V27c0-1.6,1.3-2.8,2.8-2.8c1.6,0,2.8,1.3,2.8,2.8v2.8
	c0,0.3-0.4,0.6-0.7,0.5c-0.3,0-0.5-0.3-0.5-0.5V27c0-0.9-0.7-1.6-1.6-1.6c-0.9,0-1.6,0.7-1.6,1.6V29.8z"/>
<path d="M33.6,32.1c0,0.3-0.2,0.7-0.5,0.7c-0.3,0-0.7-0.2-0.7-0.5c0-0.1,0-0.1,0-0.2v-2.7c0-1.6,1.3-2.8,2.8-2.8
	s2.8,1.3,2.8,2.8v3.5c0,0.3-0.4,0.6-0.7,0.5c-0.3,0-0.5-0.3-0.5-0.5v-3.5c0-0.9-0.7-1.6-1.6-1.6s-1.6,0.7-1.6,1.6V32.1L33.6,32.1z"
	/>
<path d="M38,33.9c0,0.3-0.4,0.6-0.7,0.5c-0.3,0-0.5-0.3-0.5-0.5v-2.8c0-0.8,0.3-1.5,0.8-2l0,0c1.1-1.1,2.9-1.1,4,0
	c0,0,0,0,0,0l0,0c0.5,0.5,0.8,1.2,0.8,2v4.1c0,2.5-0.2,5-0.6,7.5c-0.4,2.5-1.1,4.9-2,7.3c-0.1,0.3-0.5,0.5-0.8,0.4
	c-0.3-0.1-0.5-0.5-0.4-0.8l0,0c0.8-2.3,1.5-4.7,1.9-7.1c0.4-2.4,0.6-4.9,0.6-7.3v-4.1c0-0.4-0.2-0.8-0.5-1.1l0,0
	c-0.6-0.6-1.6-0.6-2.2,0c-0.3,0.3-0.5,0.7-0.5,1.1L38,33.9L38,33.9z"/>
<path d="M41.6,57.3c0,0.3-0.2,0.7-0.5,0.7c-0.3,0-0.7-0.2-0.7-0.5c0-0.1,0-0.1,0-0.2v-7h-17v7c0,0.3-0.2,0.7-0.5,0.7
	s-0.7-0.2-0.7-0.5c0-0.1,0-0.1,0-0.2v-7.6c0-0.3,0.3-0.6,0.6-0.6H41c0.3,0,0.6,0.3,0.6,0.6V57.3z"/>
<path d="M22.4,11.5c-0.2-0.2-0.2-0.6,0-0.9s0.6-0.2,0.9,0l0,0l1.8,1.8L30.4,7c0.2-0.2,0.6-0.2,0.9,0
	c0.2,0.2,0.2,0.6,0,0.9l-5.9,5.9c-0.2,0.2-0.6,0.2-0.9,0L22.4,11.5z"/>
</svg>
