<?xml version="1.0" encoding="utf-8"?>
<!-- Generator: Adobe Illustrator 21.0.0, SVG Export Plug-In . SVG Version: 6.00 Build 0)  -->
<svg version="1.1" id="Layer_1" xmlns="http://www.w3.org/2000/svg" xmlns:xlink="http://www.w3.org/1999/xlink" x="0px" y="0px"
	 viewBox="0 0 51.8 51.3" style="enable-background:new 0 0 51.8 51.3;" xml:space="preserve">

<path d="M34.4,36.7c-0.3,0-0.6-0.4-0.5-0.7c0-0.3,0.3-0.5,0.5-0.5h7.2c0.3,0,0.6,0.4,0.5,0.7c0,0.3-0.3,0.5-0.5,0.5
	H34.4z"/>
<path d="M34.4,34.2c-0.3,0-0.6-0.4-0.5-0.7c0-0.3,0.3-0.5,0.5-0.5h7.2c0.3,0,0.6,0.4,0.5,0.7c0,0.3-0.3,0.5-0.5,0.5
	H34.4z"/>
<path d="M37.4,36.3c0-0.3,0.2-0.7,0.5-0.7c0.3,0,0.7,0.2,0.7,0.5c0,0.1,0,0.1,0,0.2v8.1c0,0.3-0.2,0.7-0.5,0.7
	c-0.3,0-0.7-0.2-0.7-0.5c0-0.1,0-0.1,0-0.2V36.3z"/>
<path d="M14.5,30.5c-0.2,0.2-0.6,0.2-0.9,0c-0.2-0.2-0.2-0.6,0-0.9l7.8-7.8V6.3c0-0.3,0.2-0.7,0.5-0.7
	c0.3,0,0.7,0.2,0.7,0.5c0,0.1,0,0.1,0,0.2V22c0,0.2-0.1,0.3-0.2,0.4L14.5,30.5L14.5,30.5z"/>
<path d="M26.3,42.5c0.3-0.1,0.7,0.1,0.7,0.5c0.1,0.3-0.1,0.7-0.5,0.7l0,0c-3,0.6-6,0.6-9-0.1c-8.6-2-15.2-8.8-17-17.4
	c-1.2-5.6,0-11.5,3.2-16.3C8.9,2.2,18.2-1.4,27.2,0.5c2.6,0.6,5,1.7,7.3,3.2c7.2,4.9,10.9,13.5,9.4,22.1c-0.1,0.3-0.4,0.6-0.7,0.5
	s-0.6-0.4-0.5-0.7c1.4-8.1-2.1-16.3-8.9-20.9c-2.1-1.4-4.4-2.4-6.8-3C18.4-0.2,9.6,3.3,4.7,10.5c-3,4.5-4.1,10.1-3.1,15.4
	c1.7,8.2,8,14.6,16.1,16.5C20.5,43.1,23.4,43.1,26.3,42.5z"/>
<path d="M51.8,37.6c0,7.5-6.1,13.7-13.7,13.7s-13.7-6.1-13.7-13.7c0-7.5,6.1-13.7,13.7-13.7c3.6,0,7.1,1.4,9.7,4
	C50.4,30.5,51.8,34,51.8,37.6z M46.9,46.4c4.9-4.8,4.9-12.7,0-17.6s-12.7-4.9-17.6,0s-4.9,12.7,0,17.6c2.3,2.3,5.5,3.7,8.8,3.7
	C41.4,50,44.6,48.7,46.9,46.4L46.9,46.4z"/>
</svg>
