<?xml version="1.0" encoding="utf-8"?>
<!-- Generator: Adobe Illustrator 21.0.0, SVG Export Plug-In . SVG Version: 6.00 Build 0)  -->
<svg version="1.1" id="Layer_1" xmlns="http://www.w3.org/2000/svg" xmlns:xlink="http://www.w3.org/1999/xlink" x="0px" y="0px"
	 viewBox="0 0 512 512" style="enable-background:new 0 0 512 512;" xml:space="preserve">
<g>
	<path d="M489.4,112.9h-67.8v22.6v22.6v137.5c0,37.4-30.4,67.8-67.8,67.8H213.6l-86.1,60.2h185.2l109.6,76.7c3.9,2.7,8.4,4.1,13,4.1
		c3.6,0,7.1-0.8,10.4-2.6c7.5-3.9,12.2-11.6,12.2-20v-58.2h31.6c12.5,0,22.6-10.1,22.6-22.6V135.5
		C512,123.1,501.9,112.9,489.4,112.9"/>
	<path d="M353.9,7.5H22.6C10.1,7.5,0,17.6,0,30.1v265.5c0,12.5,10.1,22.6,22.6,22.6h31.6v58.2c0,8.4,4.7,16.1,12.2,20
		c3.3,1.7,6.9,2.6,10.4,2.6c4.6,0,9.1-1.4,13-4.1l45.8-32l22.6-15.8l22.6-15.8l18.7-13.1H354c12.5,0,22.6-10.1,22.6-22.6V158.1
		v-22.6v-22.6V30.1C376.5,17.6,366.4,7.5,353.9,7.5 M286.1,210.8v22.6h-22.6h-13.8H112.9H90.4v-22.6v-24.7h195.8v24.7H286.1z
		 M286.1,120.5v23.1H90.4v-23.1V96.3h195.8v24.2H286.1z"/>
</g>
</svg>
