<?xml version="1.0" encoding="utf-8"?>
<!-- Generator: Adobe Illustrator 21.0.0, SVG Export Plug-In . SVG Version: 6.00 Build 0)  -->
<svg version="1.1" id="Layer_1" xmlns="http://www.w3.org/2000/svg" xmlns:xlink="http://www.w3.org/1999/xlink" x="0px" y="0px"
	 viewBox="0 0 63.7 63.7" style="enable-background:new 0 0 63.7 63.7;" xml:space="preserve">

<path d="M61.5,28.3l-16,16c-1.9,1.9-5,1.9-6.8,0c0,0,0,0,0,0l-16-16c-1.9-1.9-1.9-4.9,0-6.8l16-16c1.9-1.9,5-1.9,6.8,0
	c0,0,0,0,0,0l16,16C63.3,23.4,63.3,26.4,61.5,28.3z M44.6,43.5l16-16c1.4-1.4,1.4-3.7,0-5.1l-16-16c-1.4-1.4-3.7-1.4-5.1,0
	c0,0,0,0,0,0l-16,16c-1.4,1.4-1.4,3.7,0,5.1l16,16C40.9,44.9,43.2,44.9,44.6,43.5C44.6,43.5,44.6,43.5,44.6,43.5z"/>
<path d="M45.9,50c2.2,2.2,2.2,5.8,0,8c0,0,0,0,0,0l0,0c-2.2,2.2-5.7,2.2-7.9,0l0,0c-2.2-2.2-2.2-5.8,0-8c0,0,0,0,0,0
	l0,0C40.2,47.9,43.7,47.9,45.9,50L45.9,50z M45.1,50.9c-1.7-1.7-4.5-1.7-6.2,0l0,0c-1.7,1.7-1.7,4.5,0,6.2l0,0
	c1.7,1.7,4.5,1.7,6.2,0l0,0C46.8,55.4,46.8,52.6,45.1,50.9L45.1,50.9z"/>
<path d="M40,49c0.2,0.2,0.2,0.6,0,0.9s-0.6,0.2-0.9,0L15.5,26.2c-1.4-1.4-3.3-2.2-5.3-2.2H0.6c-0.3,0-0.6-0.4-0.5-0.7
	c0-0.3,0.3-0.5,0.5-0.5h9.6c2.3,0,4.5,0.9,6.2,2.5L40,49z"/>
<path d="M62.6,30.3c0.2-0.2,0.6-0.2,0.9,0c0.2,0.2,0.2,0.6,0,0.9L44.8,49.9c-0.2,0.2-0.6,0.2-0.9,0s-0.2-0.6,0-0.9
	L62.6,30.3z"/>
<path d="M43.4,52.6c0.8,0.8,0.8,2.1,0,2.9s-2.1,0.8-2.9,0l0,0c-0.8-0.8-0.8-2.1,0-2.9S42.7,51.8,43.4,52.6L43.4,52.6z
	 M42.8,54c0-0.4-0.3-0.8-0.8-0.8c-0.4,0-0.8,0.3-0.8,0.8c0,0.2,0.1,0.4,0.2,0.6l0,0c0.3,0.3,0.8,0.3,1.1,0
	C42.6,54.4,42.7,54.2,42.8,54L42.8,54z"/>
<path d="M39.6,19l-3.5,3.5c-0.2,0.2-0.6,0.2-0.9,0L29,16.2c-0.2-0.2-0.2-0.6,0-0.9l3.4-3.5c0.2-0.2,0.6-0.2,0.9,0
	c0,0,0,0,0,0l6.3,6.3C39.8,18.4,39.8,18.8,39.6,19z M35.7,21.1l2.6-2.6l-5.4-5.4l-2.6,2.6L35.7,21.1L35.7,21.1z"/>
</svg>
