<?xml version="1.0" encoding="UTF-8"?>
<!DOCTYPE svg PUBLIC "-//W3C//DTD SVG 1.1//EN" "http://www.w3.org/Graphics/SVG/1.1/DTD/svg11.dtd">
<!-- Creator: CorelDRAW X8 -->
<svg xmlns="http://www.w3.org/2000/svg" xml:space="preserve" width="109.728mm" height="40.894mm" version="1.1" shape-rendering="geometricPrecision" text-rendering="geometricPrecision" image-rendering="optimizeQuality" fill-rule="evenodd" clip-rule="evenodd"
viewBox="0 0 10973 4089"
 xmlns:xlink="http://www.w3.org/1999/xlink">
<g>
       <path fill='#000' d="M0 4089l0 -4089 10973 0 0 4089 -10973 0zm10693 -3810l0 0 -10414 0 0 3531 10414 0 0 -3531zm-9257 1121l0 0 188 0c313,0 739,71 739,640 0,546 -421,652 -739,652l-188 0c-22,0 -38,-16 -38,-31l0 -1228c0,-17 16,-33 38,-33zm237 1036l0 0c148,6 419,-43 419,-396 0,-271 -176,-392 -419,-388l0 784zm1081 -1036l0 0 810 0c24,0 40,14 40,31l0 214c0,15 -16,31 -40,31l-568 0 0 230 444 0c24,0 37,14 37,31l0 215c0,15 -13,31 -37,31l-444 0 0 230 570 0c24,0 41,15 41,31l0 215c0,15 -17,31 -41,31l-812 0c-22,0 -37,-16 -37,-31l0 -1228c0,-17 15,-31 37,-31zm1296 -2l0 0 207 0c9,0 26,3 31,11l515 776 0 -756c0,-17 16,-31 38,-31l200 0c23,0 38,14 38,31l0 1234c0,15 -15,32 -38,32l-191 0c-8,0 -26,-4 -33,-13l-523 -763 0 744c0,15 -17,32 -39,32l-205 0c-26,0 -37,-17 -37,-32l0 -1234c0,-17 11,-31 37,-31zm1475 -1l0 0 202 0c24,0 38,15 38,31l0 1233c0,15 -14,31 -38,31l-202 0c-22,0 -38,-16 -38,-31l0 -1233c0,-16 16,-31 38,-31zm1057 769l0 0c-11,0 -102,0 -195,-42 -137,-66 -216,-190 -216,-344 0,-245 198,-384 411,-384 225,0 403,130 406,352 0,16 -16,31 -38,31l-197 0c-21,0 -39,-15 -39,-31 -4,-75 -64,-103 -132,-103 -75,0 -135,44 -135,135 0,81 64,157 135,157 10,0 101,0 192,42 141,64 212,196 212,348 0,248 -193,367 -404,367 -228,-6 -407,-110 -411,-353 0,-18 15,-29 38,-29l200 0c18,0 38,11 38,29 4,79 64,106 135,106 72,0 130,-45 130,-120 0,-79 -69,-156 -130,-161zm1268 -769l0 0c250,0 456,204 456,451 0,249 -206,438 -456,438 -252,0 -458,-189 -458,-438 0,-247 206,-451 458,-451zm0 650l0 0c109,0 194,-84 194,-199 0,-113 -85,-213 -194,-213 -109,0 -198,100 -198,213 0,115 89,199 198,199zm-343 368l0 0 682 0c24,0 40,16 40,32l0 216c0,15 -16,32 -40,32l-682 0c-24,0 -39,-17 -39,-32l0 -216c0,-16 15,-32 39,-32zm1087 -1018l0 0 214 0c16,0 33,10 35,21 80,224 148,405 227,630 74,-208 147,-420 222,-630 2,-11 18,-21 34,-21l214 0c30,0 44,21 35,44l-471 1239c-13,24 -56,24 -69,0l-474 -1239c-9,-22 6,-44 33,-44z"/>
</g>
</svg>
