<?xml version="1.0" encoding="utf-8"?>
<!-- Generator: Adobe Illustrator 21.0.0, SVG Export Plug-In . SVG Version: 6.00 Build 0)  -->
<svg version="1.1" id="Layer_1" xmlns="http://www.w3.org/2000/svg" xmlns:xlink="http://www.w3.org/1999/xlink" x="0px" y="0px"
	 viewBox="0 0 61 57.6" style="enable-background:new 0 0 61 57.6;" xml:space="preserve">

<path d="M29.7,14.6c0.2-0.3,0.6-0.3,0.9-0.1c0.3,0.2,0.3,0.6,0.1,0.9l-7.1,8.5v4.6l7,28.4c0.1,0.3-0.1,0.7-0.4,0.8
	c-0.3,0.1-0.5,0-0.7-0.2L8.3,28.8c-0.1-0.1-0.1-0.3-0.1-0.4v-4.6c0-0.1,0-0.3,0.1-0.4l6.9-8.7c0.2-0.3,0.6-0.3,0.8-0.2
	c0.1,0,0.1,0.1,0.2,0.2l6.8,8.1L29.7,14.6L29.7,14.6z M22.3,23.9L15.6,16l-6.3,8v4.2l19.2,26l-6.3-25.5c0,0,0-0.1,0-0.1L22.3,23.9z"
	/>
<path d="M8.7,26.6C8.3,26.6,8,26.4,8,26c0-0.3,0.2-0.7,0.5-0.7c0.1,0,0.1,0,0.2,0h21.5c0.3,0,0.6,0.4,0.5,0.7
	c0,0.3-0.3,0.5-0.5,0.5H8.7z"/>
<path d="M15.6,15.7c-0.3,0-0.7-0.2-0.7-0.5c0-0.3,0.2-0.7,0.5-0.7c0.1,0,0.1,0,0.2,0h14.7c0.3,0,0.7,0.2,0.7,0.5
	s-0.2,0.7-0.5,0.7c-0.1,0-0.1,0-0.2,0H15.6z"/>
<path d="M29.6,15.4c-0.2-0.3-0.2-0.6,0.1-0.9c0.3-0.2,0.6-0.2,0.9,0.1l6.8,8.1l6.8-8.1c0.2-0.3,0.6-0.3,0.8-0.2
	c0.1,0,0.1,0.1,0.2,0.2l6.9,8.7c0.1,0.1,0.1,0.2,0.1,0.4v4.6c0,0.2-0.1,0.3-0.2,0.4L30.8,57.3c-0.2,0.3-0.6,0.3-0.8,0.2
	c-0.2-0.1-0.3-0.4-0.2-0.7l7-28.3v-4.6L29.6,15.4L29.6,15.4z M44.6,16l-6.7,7.9v4.7c0,0,0,0.1,0,0.1l-6.3,25.4l19.2-26V24L44.6,16z"
	/>
<path d="M51.5,25.4c0.3,0,0.6,0.4,0.5,0.7c0,0.3-0.3,0.5-0.5,0.5H30.1c-0.3,0-0.6-0.4-0.5-0.7c0-0.3,0.3-0.5,0.5-0.5
	H51.5z"/>
<path d="M44.6,14.4c0.3,0,0.7,0.2,0.7,0.5c0,0.3-0.2,0.7-0.5,0.7c-0.1,0-0.1,0-0.2,0H29.9c-0.3,0-0.7-0.2-0.7-0.5
	s0.2-0.7,0.5-0.7c0.1,0,0.1,0,0.2,0H44.6z"/>
<path d="M5.9,32.5c0.1-0.1,0.2-0.1,0.3-0.1l0.5-0.1c0.3-0.1,0.7,0.1,0.7,0.4C7.5,33,7.3,33.4,7,33.5l-6.2,2
	c-0.3,0.1-0.7,0-0.8-0.3s0-0.7,0.3-0.8c0.1,0,0.1,0,0.2-0.1L5.9,32.5z"/>
<path d="M7,17.4c0.3,0.1,0.5,0.5,0.4,0.8c-0.1,0.3-0.5,0.5-0.8,0.4l-6.2-2c-0.3-0.1-0.5-0.5-0.4-0.8
	c0.1-0.3,0.5-0.5,0.8-0.4L7,17.4z"/>
<path d="M16.1,5.5c0.2,0.3,0.1,0.7-0.1,0.9c-0.3,0.2-0.7,0.1-0.9-0.1L11.3,1c-0.2-0.3-0.1-0.7,0.1-0.9
	c0.3-0.2,0.7-0.1,0.9,0.1L16.1,5.5z"/>
<path d="M54.9,32.4c0.1,0,0.2,0.1,0.3,0.1l5.5,1.8c0.3,0.1,0.5,0.5,0.4,0.8c-0.1,0.3-0.5,0.5-0.8,0.4l0,0l-6.2-2
	c-0.3-0.1-0.5-0.4-0.4-0.8s0.4-0.5,0.8-0.4L54.9,32.4L54.9,32.4z"/>
<path d="M54.4,18.5c-0.3,0.1-0.7-0.1-0.8-0.4c-0.1-0.3,0.1-0.7,0.4-0.8l6.2-2c0.3-0.1,0.7,0.1,0.8,0.4s-0.1,0.7-0.4,0.8
	L54.4,18.5z"/>
<path d="M45.9,6.3c-0.2,0.3-0.6,0.3-0.9,0.1s-0.3-0.6-0.1-0.9l0,0l3.9-5.3C49,0,49.4-0.1,49.7,0.1S50,0.7,49.8,1
	L45.9,6.3z"/>
</svg>
