<?xml version="1.0" encoding="utf-8"?>
<!-- Generator: Adobe Illustrator 21.0.0, SVG Export Plug-In . SVG Version: 6.00 Build 0)  -->
<svg version="1.1" id="Слой_1" xmlns="http://www.w3.org/2000/svg" xmlns:xlink="http://www.w3.org/1999/xlink" x="0px" y="0px"
	 viewBox="0 0 83 83" style="enable-background:new 0 0 83 83;" xml:space="preserve">

<path d="M29.4,41.3c-5.1,0-9.3-4.1-9.3-9.3s4.1-9.3,9.3-9.3c5.1,0,9.2,4.1,9.2,9.3S34.5,41.3,29.4,41.3z M29.4,27.8
	c-2.3,0-4.3,1.9-4.3,4.3s1.9,4.3,4.3,4.3s4.2-1.9,4.2-4.3S31.7,27.8,29.4,27.8z M53.6,60.2c-5.1,0-9.3-4.1-9.3-9.2
	c0-5.1,4.1-9.3,9.3-9.3s9.3,4.1,9.3,9.2C62.9,56,58.8,60.2,53.6,60.2z M53.6,46.7c-2.3,0-4.3,1.9-4.3,4.2c0,2.3,1.9,4.3,4.3,4.3
	s4.3-1.9,4.3-4.2C57.9,48.6,56,46.7,53.6,46.7z M32.9,61.6l21.6-37.8c0.7-1.2,0.3-2.7-0.9-3.4c-1.2-0.7-2.7-0.3-3.4,0.9L28.5,59.2
	c-0.7,1.2-0.3,2.7,0.9,3.4c0.4,0.2,0.8,0.3,1.2,0.3C31.6,62.9,32.4,62.4,32.9,61.6z M41.5,83C18.6,83,0,64.4,0,41.5
	C0,18.6,18.6,0,41.5,0C64.4,0,83,18.6,83,41.5C83,64.4,64.4,83,41.5,83z M41.5,5C21.4,5,5,21.4,5,41.5S21.4,78,41.5,78
	S78,61.6,78,41.5S61.6,5,41.5,5z"/>
</svg>
