<?xml version="1.0" encoding="utf-8"?>
<!-- Generator: Adobe Illustrator 21.0.0, SVG Export Plug-In . SVG Version: 6.00 Build 0)  -->
<svg version="1.1" id="Слой_1" xmlns="http://www.w3.org/2000/svg" xmlns:xlink="http://www.w3.org/1999/xlink" x="0px" y="0px"
	 viewBox="0 0 20.6 19.6" style="enable-background:new 0 0 20.6 19.6;" xml:space="preserve">
<path d="M19.3,10.5v7.8h-15v-7.8L19.3,10.5 M20.6,9.2H3v10.4h17.6V9.2z M15.8,9.2l1.8,1.8c0,0.1,0,0.1,0,0.2
	c0,0.6,0.5,1,1,1c0.1,0,0.1,0,0.2,0l1.8,1.8V9.2H15.8z M18.1,14.4c0,0.6-0.5,1-1,1c-0.6,0-1-0.5-1-1c0-0.6,0.5-1,1-1
	S18.1,13.8,18.1,14.4L18.1,14.4z M15,14.4c0,1.5-1.4,2.7-3.1,2.7s-3.1-1.2-3.1-2.7s1.4-2.7,3.1-2.7C13.5,11.7,15,12.9,15,14.4
	L15,14.4z M7.7,14.4c0,0.6-0.5,1-1,1c-0.6,0-1-0.5-1-1c0-0.6,0.5-1,1-1S7.7,13.8,7.7,14.4L7.7,14.4z M3,14l1.8-1.8
	c0.1,0,0.1,0,0.2,0c0.6,0,1-0.5,1-1c0-0.1,0-0.1,0-0.2l1.8-1.8H3V14z M6.1,17.6c0-0.6-0.5-1-1-1c-0.1,0-0.1,0-0.2,0L3,14.8v4.8h4.8
	L6,17.8C6,17.7,6.1,17.7,6.1,17.6L6.1,17.6z M18.6,16.6c-0.6,0-1,0.5-1,1c0,0.1,0,0.1,0,0.2l-1.8,1.8h4.8v-4.8l-1.8,1.8
	C18.7,16.6,18.7,16.6,18.6,16.6L18.6,16.6z M15.8,6.3c0,0.6-0.5,1-1,1c-0.6,0-1-0.5-1-1c0-0.6,0.5-1,1-1C15.4,5.3,15.8,5.7,15.8,6.3
	L15.8,6.3z M1.8,9.2C1.8,8.5,2.4,8,3,8h0.7V7.9L13,2.8L13.7,3c0,0.1,0,0.1,0.1,0.2c0.3,0.5,0.9,0.7,1.4,0.4c0.1,0,0.1-0.1,0.2-0.1
	L16,3.7l1.6,2.9l-0.2,0.7c-0.1,0-0.1,0-0.2,0.1C17,7.5,16.8,7.8,16.7,8h3.1l-2.1-3.8L15.4,0l-4.2,2.3l-7,3.8L0,8.5l1.8,3.3V9.2z
	 M8.9,6.4C8.2,6.8,7.7,7.4,7.4,8h5.8c0-0.2-0.1-0.5-0.2-0.7C12.2,6,10.4,5.6,8.9,6.4L8.9,6.4z"/>
</svg>
