<?xml version="1.0" encoding="utf-8"?>
<!-- Generator: Adobe Illustrator 21.0.0, SVG Export Plug-In . SVG Version: 6.00 Build 0)  -->
<svg version="1.1" id="Layer_1" xmlns="http://www.w3.org/2000/svg" xmlns:xlink="http://www.w3.org/1999/xlink" x="0px" y="0px"
	 viewBox="0 0 59.4 59.4" style="enable-background:new 0 0 59.4 59.4;" xml:space="preserve">

<path d="M43.9,55.6l-8-2l-6,5.7c-0.2,0.2-0.6,0.2-0.9,0l-5.9-5.8l-8,1.9c-0.3,0.1-0.7-0.1-0.7-0.4c0,0,0,0,0,0l-2.3-8
	l-7.9-2.4c-0.3-0.1-0.5-0.4-0.4-0.7l2-8l-5.7-6c-0.2-0.2-0.2-0.6,0-0.9l5.8-5.9l-1.9-8c-0.1-0.3,0.1-0.7,0.4-0.7c0,0,0,0,0,0
	l7.9-2.2l2.4-7.9c0.1-0.3,0.4-0.5,0.7-0.4l8,2l6-5.7c0.2-0.2,0.6-0.2,0.9,0l5.9,5.8l8-1.9c0.3-0.1,0.7,0.1,0.7,0.4c0,0,0,0,0,0
	l2.2,7.9l7.9,2.4c0.3,0.1,0.5,0.4,0.4,0.7l-2,8l5.7,6c0.2,0.2,0.2,0.6,0,0.9l-5.8,5.9l1.9,8c0.1,0.3-0.1,0.7-0.4,0.7c0,0,0,0,0,0
	L47,47.3l-2.4,7.9C44.5,55.5,44.2,55.7,43.9,55.6L43.9,55.6z M35.9,52.3l7.8,2l2.3-7.7c0.1-0.2,0.2-0.4,0.4-0.4L54,44l-1.8-7.8
	c0-0.2,0-0.4,0.2-0.6l5.6-5.7l-5.5-5.8c-0.2-0.2-0.2-0.4-0.2-0.6l2-7.8l-7.7-2.3c-0.2-0.1-0.4-0.2-0.4-0.4L44,5.4l-7.8,1.8
	c-0.2,0-0.4,0-0.6-0.2l-5.7-5.6l-5.8,5.5c-0.2,0.2-0.4,0.2-0.6,0.2l-7.8-2l-2.3,7.7c-0.1,0.2-0.2,0.4-0.4,0.4l-7.7,2.2l1.8,7.8
	c0,0.2,0,0.4-0.2,0.6l-5.6,5.7l5.5,5.8c0.2,0.2,0.2,0.4,0.2,0.6l-2,7.8l7.7,2.3c0.2,0.1,0.4,0.2,0.4,0.4l2.2,7.7l7.8-1.8
	c0.2,0,0.4,0,0.6,0.2l5.7,5.6l5.8-5.5C35.4,52.3,35.6,52.2,35.9,52.3L35.9,52.3z M12.2,43.2c-0.3,0-0.7-0.2-0.7-0.5
	c0-0.3,0.2-0.7,0.5-0.7c0.1,0,0.1,0,0.2,0h9V22.1h-9c-0.3,0-0.6-0.4-0.5-0.7c0-0.3,0.3-0.5,0.5-0.5h9.6c0.3,0,0.6,0.3,0.6,0.6v0
	v21.1c0,0.3-0.3,0.6-0.6,0.6H12.2z M40.7,27.9c-0.3,0-0.6-0.4-0.5-0.7c0-0.3,0.3-0.5,0.5-0.5h1.5c0.9,0,1.7-0.8,1.7-1.7
	s-0.8-1.7-1.7-1.7h-7.8c-0.3,0-0.6-0.3-0.6-0.6v-6c0-1.4-1.1-2.6-2.6-2.6c0,0,0,0,0,0h-0.6v2.4c0,1.8-0.7,3.6-2,4.9l0,0
	c-1.3,1.3-3.1,2-4.9,2h-2c-0.3,0-0.6-0.4-0.5-0.7c0-0.3,0.3-0.5,0.5-0.5h1.9c1.5,0,2.9-0.6,4-1.7l0,0c1.1-1.1,1.7-2.5,1.7-4v-3
	c0-0.3,0.3-0.6,0.6-0.6l0,0h1.3c2.1,0,3.8,1.7,3.8,3.8V22h7.1c1.6,0,2.9,1.3,2.9,2.9c0,1.6-1.3,2.9-2.9,2.9L40.7,27.9L40.7,27.9z
	 M41.7,27.9c-0.3,0-0.6-0.4-0.5-0.7c0-0.3,0.3-0.5,0.5-0.5h1.5c1.6,0,2.9,1.3,2.9,2.9c0,1.6-1.3,2.9-2.9,2.9c0,0,0,0,0,0h-2.6
	c-0.3,0-0.7-0.2-0.7-0.5c0-0.3,0.2-0.7,0.5-0.7c0.1,0,0.1,0,0.2,0h2.6c0.9,0,1.7-0.8,1.7-1.7s-0.8-1.7-1.7-1.7H41.7z M41,32.5
	c-0.3,0-0.6-0.4-0.5-0.7c0-0.3,0.3-0.5,0.5-0.5h1.5c1.6,0,2.9,1.3,2.9,2.9c0,1.6-1.3,2.9-2.9,2.9h-2.6c-0.3,0-0.6-0.4-0.5-0.7
	c0-0.3,0.3-0.5,0.5-0.5h2.6c0.9,0,1.7-0.8,1.7-1.7s-0.8-1.7-1.7-1.7H41z M40.1,37.1c-0.3,0-0.7-0.2-0.7-0.5c0-0.3,0.2-0.7,0.5-0.7
	c0.1,0,0.1,0,0.2,0h1.1c1.6,0,2.9,1.3,2.9,2.9c0,1.6-1.3,2.9-2.9,2.9H21.9c-0.3,0-0.6-0.4-0.5-0.7c0-0.3,0.3-0.5,0.5-0.5h19.2
	c0.9,0,1.7-0.8,1.7-1.7s-0.8-1.7-1.7-1.7H40.1z"/>
</svg>
