<?xml version="1.0" encoding="iso-8859-1"?>
<!-- Generator: Adobe Illustrator 19.0.0, SVG Export Plug-In . SVG Version: 6.00 Build 0)  -->
<svg version="1.1" id="Layer_1" xmlns="http://www.w3.org/2000/svg" xmlns:xlink="http://www.w3.org/1999/xlink" x="0px" y="0px"
	 viewBox="0 0 489 489" style="enable-background:new 0 0 489 489;" xml:space="preserve">
<g>
	<g>
		<path d="M429.03,441.9V47.1c0-25.7-21.4-47.1-47.1-47.1h-274.9c-25.7,0-47.1,21.4-47.1,47.1v394.8c0,25.7,21.4,47.1,47.1,47.1h276
			C408.73,489,430.13,467.6,429.03,441.9z M388.43,440.8c0,3.2-3.2,6.4-6.4,6.4h-275c-3.2,0-6.4-3.2-6.4-6.4v-90.9h287.8V440.8z
			 M388.43,309.2h-287.8V46c0-3.2,3.2-6.4,6.4-6.4l275,1.1c3.2,0,6.4,3.2,6.4,6.4V309.2z"/>
		<path d="M223.63,419.4h42.8c11.8,0,20.3-9.6,20.3-20.3c0-10.7-8.6-20.3-20.3-20.3h-42.8c-10.7,0-20.3,9.6-20.3,20.3
			C203.33,409.8,211.83,419.4,223.63,419.4z"/>
	</g>
</g>
<g>
</g>
<g>
</g>
<g>
</g>
<g>
</g>
<g>
</g>
<g>
</g>
<g>
</g>
<g>
</g>
<g>
</g>
<g>
</g>
<g>
</g>
<g>
</g>
<g>
</g>
<g>
</g>
<g>
</g>
</svg>
