<?xml version="1.0" encoding="iso-8859-1"?>
<!-- Generator: Adobe Illustrator 21.0.0, SVG Export Plug-In . SVG Version: 6.00 Build 0)  -->
<svg version="1.1" id="&#x421;&#x43B;&#x43E;&#x439;_1"
	 xmlns="http://www.w3.org/2000/svg" xmlns:xlink="http://www.w3.org/1999/xlink" x="0px" y="0px" viewBox="0 0 105.27 105.27"
	 style="enable-background:new 0 0 105.27 105.27;" xml:space="preserve">
<path d="M52.635,5.999c10.045,0,19.488,3.912,26.591,11.014c7.103,7.103,11.014,16.546,11.014,26.591s-3.912,19.488-11.014,26.591
	L52.635,96.786L26.044,70.195c-14.662-14.662-14.662-38.519,0-53.182C33.147,9.911,42.59,5.999,52.635,5.999 M52.635,63.86
	c5.41,0,10.497-2.107,14.323-5.933c7.898-7.898,7.898-20.748,0-28.646c-3.826-3.826-8.912-5.933-14.323-5.933
	c-5.411,0.001-10.497,2.107-14.322,5.933c-7.898,7.898-7.898,20.748,0,28.646C42.138,61.753,47.225,63.86,52.635,63.86
	 M52.635-0.001c-11.16,0-22.319,4.257-30.833,12.772c-17.029,17.029-17.029,44.638,0,61.667l30.833,30.833l30.833-30.833
	c17.029-17.029,17.029-44.638,0-61.667C74.954,4.256,63.795-0.001,52.635-0.001L52.635-0.001z M52.635,57.86
	c-3.649,0-7.296-1.391-10.08-4.175c-5.567-5.567-5.567-14.593,0-20.16c2.783-2.783,6.432-4.175,10.08-4.175
	c3.649,0,7.296,1.391,10.08,4.175c5.567,5.567,5.567,14.593,0,20.16C59.932,56.467,56.283,57.86,52.635,57.86L52.635,57.86z"/>
</svg>
