<?xml version="1.0" encoding="utf-8"?>
<!-- Generator: Adobe Illustrator 21.0.0, SVG Export Plug-In . SVG Version: 6.00 Build 0)  -->
<svg version="1.1" id="Layer_1" xmlns="http://www.w3.org/2000/svg" xmlns:xlink="http://www.w3.org/1999/xlink" x="0px" y="0px"
	 viewBox="0 0 83.7 83.7" style="enable-background:new 0 0 83.7 83.7;" xml:space="preserve">

<path d="M46.8,57c-0.3,0-0.6-0.4-0.5-0.7c0-0.3,0.3-0.5,0.5-0.5h33.5c0.9-0.3,1.6-1.1,1.6-2.1c0-1.3-2.4-2.9-3.9-4
	c-0.5-0.3-0.9-0.6-1.3-1c-0.2-0.2-0.4-0.4-0.6-0.7c-1.3-1.6-3.2-2.8-5.3-3.2c-3.8-0.7-22.7-1.1-23.2-1.1h-31L8,49.5
	c-1,0.7-2.1,1-3.3,1H0.6c-0.3,0-0.6-0.3-0.6-0.7c0-0.1,0.1-0.2,0.1-0.3l5.4-6.6L0.2,28.5c-0.1-0.3,0.1-0.7,0.4-0.8
	c0.1,0,0.1,0,0.2,0h1.9c2.1,0,4,1,5.2,2.7l8.4,12.1h31.1c0,0,19.5,0.4,23.5,1.2c2.3,0.4,4.4,1.7,5.9,3.5c0.2,0.2,0.4,0.4,0.5,0.6
	c0.4,0.3,0.7,0.6,1.1,0.9c1.8,1.2,4.5,3,4.5,5c0,1.5-1,2.9-2.5,3.3c-0.1,0-0.1,0-0.2,0L46.8,57L46.8,57z M7.3,48.5l7.9-5.4l-8.4-12
	c-1-1.4-2.5-2.2-4.2-2.2h-1l5.1,13.9c0.1,0.2,0,0.4-0.1,0.6l-4.8,5.9h2.8C5.7,49.3,6.6,49,7.3,48.5z"/>
<path d="M9,48.1c-0.1-0.3,0-0.7,0.3-0.8c0.3-0.1,0.7,0,0.8,0.3l0,0c1.1,2.9,4.9,4.8,9.5,6c4.6,1.1,9.4,1.8,14.1,2
	c0.3,0,0.6,0.3,0.6,0.6c0,0.3-0.3,0.6-0.6,0.6c-4.8-0.2-9.7-0.9-14.4-2.1C14.4,53.5,10.3,51.4,9,48.1z"/>
<path d="M6.3,43.7c-0.3,0-0.7-0.2-0.7-0.5c0-0.3,0.2-0.7,0.5-0.7c0.1,0,0.1,0,0.2,0h9.5c0.3,0,0.7,0.2,0.7,0.5
	c0,0.3-0.2,0.7-0.5,0.7c-0.1,0-0.1,0-0.2,0H6.3z"/>
<path d="M47.1,42.7c0.3,0.2,0.3,0.6,0.1,0.9c-0.2,0.3-0.6,0.3-0.9,0.1l-5.8-5.1c-1.5-1.3-3.4-2-5.4-2h-2.8l4.2,6.3
	c0.2,0.3,0,0.7-0.3,0.8c-0.2,0.1-0.5,0.1-0.7-0.1l-4.8-7.3c-0.2-0.3-0.2-0.6,0.1-0.9c0.1-0.1,0.3-0.1,0.4-0.1h4
	c2.3,0,4.5,0.8,6.2,2.4L47.1,42.7z"/>
<path d="M48.3,53.7h-12l-8,12h3.1c2.1,0,4.2-0.8,5.7-2.2L48.3,53.7z M36,52.5h14c0.2,0,0.3,0.1,0.5,0.2
	c0.2,0.3,0.2,0.6,0,0.9L38,64.5c-1.8,1.6-4.1,2.5-6.5,2.5h-4.2c-0.1,0-0.2,0-0.3-0.1c-0.3-0.2-0.4-0.6-0.2-0.8c0,0,0,0,0,0l8.7-13.2
	C35.6,52.6,35.8,52.5,36,52.5L36,52.5z"/>
<path d="M75.3,46.3c0.3,0,0.6,0.4,0.5,0.7c0,0.3-0.3,0.5-0.5,0.5h-3.5c-0.5,0-0.9,0.4-0.9,0.9c0,0.2,0.1,0.4,0.2,0.6
	c0.2,0.2,0.4,0.3,0.6,0.3h7c0.3,0,0.6,0.4,0.5,0.7c0,0.3-0.3,0.5-0.5,0.5h-7c-1.2,0-2.1-0.9-2.1-2.1s0.9-2.1,2.1-2.1
	C71.8,46.3,75.3,46.3,75.3,46.3z"/>
<path d="M55.4,48.7c0,0.5,0.4,0.9,0.9,0.9c0.5,0,0.9-0.4,0.9-0.9c0-0.5-0.4-0.9-0.9-0.9c-0.3,0-0.5,0.1-0.7,0.3
	C55.5,48.2,55.4,48.4,55.4,48.7z M54.8,50.2c-0.9-0.8-0.9-2.2,0-3.1c0.8-0.9,2.2-0.9,3.1,0s0.9,2.2,0,3.1c-0.4,0.4-1,0.6-1.5,0.6
	C55.7,50.9,55.2,50.6,54.8,50.2L54.8,50.2z"/>
<path d="M49.2,48.7c0,0.5,0.4,0.9,0.9,0.9c0.5,0,0.9-0.4,0.9-0.9c0-0.5-0.4-0.9-0.9-0.9c-0.2,0-0.5,0.1-0.7,0.3
	C49.3,48.2,49.2,48.4,49.2,48.7z M48.6,50.2c-0.8-0.8-0.8-2.2,0-3.1s2.2-0.8,3.1,0c0.8,0.8,0.8,2.2,0,3.1c-0.4,0.4-1,0.6-1.5,0.6
	C49.6,50.9,49,50.6,48.6,50.2L48.6,50.2z"/>
<path d="M43.1,48.7c0,0.5,0.4,0.9,0.9,0.9c0.5,0,0.9-0.4,0.9-0.9c0-0.5-0.4-0.9-0.9-0.9c-0.3,0-0.5,0.1-0.7,0.3
	C43.2,48.2,43.1,48.4,43.1,48.7z M42.5,50.2c-0.9-0.8-0.9-2.2,0-3.1c0.8-0.9,2.2-0.9,3.1,0s0.9,2.2,0,3.1c-0.4,0.4-1,0.6-1.5,0.6
	C43.4,50.9,42.9,50.6,42.5,50.2L42.5,50.2z"/>
<path d="M36.9,48.7c0,0.5,0.4,0.9,0.9,0.9c0.5,0,0.9-0.4,0.9-0.9c0-0.5-0.4-0.9-0.9-0.9c-0.2,0-0.5,0.1-0.7,0.3
	C37,48.2,36.9,48.4,36.9,48.7z M36.3,50.2c-0.9-0.8-0.9-2.2,0-3.1c0.8-0.9,2.2-0.9,3.1,0s0.9,2.2,0,3.1c-0.4,0.4-1,0.6-1.5,0.6
	C37.3,50.8,36.7,50.6,36.3,50.2L36.3,50.2z"/>
<path d="M30.8,48.7c0,0.5,0.4,0.9,0.9,0.9c0.5,0,0.9-0.4,0.9-0.9c0-0.5-0.4-0.9-0.9-0.9c-0.3,0-0.5,0.1-0.7,0.3
	C30.9,48.2,30.8,48.4,30.8,48.7z M30.2,50.2c-0.9-0.8-0.9-2.2,0-3.1c0.8-0.9,2.2-0.9,3.1,0s0.9,2.2,0,3.1c-0.4,0.4-1,0.6-1.5,0.6
	C31.1,50.9,30.6,50.6,30.2,50.2L30.2,50.2z"/>
<path d="M47.7,30.6c0,0.3-0.2,0.7-0.5,0.7c-0.3,0-0.7-0.2-0.7-0.5c0-0.1,0-0.1,0-0.2c0-1.1,0.5-2.2,1.3-3l0,0
	c1.4-1.4,3.6-1.6,5.3-0.5c1.6-3.5,5.7-5.1,9.2-3.6c1.5,0.7,2.8,1.9,3.5,3.4c2.5-1.1,5.4,0,6.5,2.5s0,5.4-2.5,6.5
	c-0.6,0.3-1.3,0.4-2,0.4H61c-0.3,0-0.6-0.4-0.5-0.7c0-0.3,0.3-0.5,0.5-0.5h6.9c2,0,3.7-1.7,3.7-3.7s-1.7-3.7-3.7-3.7
	c-0.7,0-1.4,0.2-1.9,0.6l-0.1,0.1c-0.3,0.1-0.7,0-0.8-0.4c0,0,0,0,0,0c-1.1-3-4.5-4.6-7.5-3.4c-1.7,0.6-3,2-3.5,3.7
	c-0.1,0.3-0.4,0.5-0.8,0.4c-0.1,0-0.2-0.1-0.2-0.1c-0.6-0.6-1.4-0.9-2.2-0.9c-0.8,0-1.6,0.3-2.2,0.9l0,0
	C48.1,29,47.7,29.8,47.7,30.6L47.7,30.6z"/>
<path d="M62.7,23.5c0,0.3-0.2,0.7-0.5,0.7c-0.3,0-0.7-0.2-0.7-0.5c0-0.1,0-0.1,0-0.2c0-3.7,3.1-6.8,6.8-6.7
	c2.9,0,5.6,1.9,6.4,4.7c1.8-1.4,4.4-1.1,5.8,0.7c0.6,0.7,0.9,1.6,0.9,2.5h1.7c0.3,0,0.7,0.2,0.7,0.5s-0.2,0.7-0.5,0.7
	c-0.1,0-0.1,0-0.2,0h-2.5c-0.3-0.1-0.6-0.4-0.5-0.7c0,0,0,0,0,0c0-0.1,0-0.1,0-0.2s0-0.2,0-0.2c0-1.6-1.3-2.9-2.9-2.9
	c-1,0-1.8,0.5-2.4,1.3c-0.2,0.3-0.6,0.4-0.8,0.2c-0.1-0.1-0.2-0.3-0.3-0.4c-0.6-3-3.5-5-6.5-4.5C64.7,18.8,62.8,21,62.7,23.5
	L62.7,23.5z"/>
</svg>
