<?xml version="1.0" encoding="utf-8"?>
<!-- Generator: Adobe Illustrator 21.0.0, SVG Export Plug-In . SVG Version: 6.00 Build 0)  -->
<svg version="1.1" id="Layer_1" xmlns="http://www.w3.org/2000/svg" xmlns:xlink="http://www.w3.org/1999/xlink" x="0px" y="0px"
	 viewBox="0 0 52.7 52.7" style="enable-background:new 0 0 52.7 52.7;" xml:space="preserve">

<path d="M48.8,51H4c-1,0-2.1-0.4-2.8-1.2l0,0C0.4,49.2,0,48.1,0,47.1V16.3c0-2.2,1.8-3.9,4-3.9h44.8
	c1,0,2.1,0.4,2.8,1.2l0,0c0.7,0.7,1.2,1.7,1.2,2.8v30.8c0,1-0.4,2.1-1.2,2.8l0,0C50.8,50.6,49.8,51.1,48.8,51z M4,49.8h44.8
	c1.5,0,2.7-1.2,2.7-2.7c0,0,0,0,0,0V16.3c0-1.5-1.2-2.7-2.7-2.7c0,0,0,0,0,0H4c-1.5,0-2.7,1.2-2.7,2.7l0,0v30.8
	c0,0.7,0.3,1.4,0.8,1.9l0,0C2.5,49.5,3.2,49.8,4,49.8L4,49.8z"/>
<path d="M47.3,45.5H30.9c-0.3,0-0.6-0.3-0.6-0.6v-9.1c0-0.3,0.3-0.6,0.6-0.6h16.3c0.3,0,0.6,0.3,0.6,0.6v9.1
	C47.9,45.2,47.6,45.5,47.3,45.5L47.3,45.5z M31.5,44.3h15.1v-7.9H31.5V44.3z"/>
<path d="M0.6,18.4c-0.3,0-0.6-0.4-0.5-0.7c0-0.3,0.3-0.5,0.5-0.5H52c0.3,0,0.6,0.4,0.5,0.7c0,0.3-0.3,0.5-0.5,0.5H0.6z"
	/>
<path d="M0.6,26.4c-0.3,0-0.6-0.4-0.5-0.7c0-0.3,0.3-0.5,0.5-0.5H52c0.3,0,0.6,0.4,0.5,0.7c0,0.3-0.3,0.5-0.5,0.5H0.6z"
	/>
<path d="M3.9,30.6c-0.3,0-0.7-0.2-0.7-0.5s0.2-0.7,0.5-0.7c0.1,0,0.1,0,0.2,0h9c0.3,0,0.7,0.2,0.7,0.5
	c0,0.3-0.2,0.7-0.5,0.7c-0.1,0-0.1,0-0.2,0H3.9z"/>
<path d="M15.4,30.5c-0.3,0-0.7-0.2-0.7-0.5c0-0.3,0.2-0.7,0.5-0.7c0.1,0,0.1,0,0.2,0h10c0.3,0,0.6,0.4,0.5,0.7
	c0,0.3-0.3,0.5-0.5,0.5H15.4z"/>
<path d="M3.9,34.5c-0.3,0-0.6-0.4-0.5-0.7c0-0.3,0.3-0.5,0.5-0.5h17.6c0.3,0,0.6,0.4,0.5,0.7c0,0.3-0.3,0.5-0.5,0.5H3.9
	z"/>
<path d="M23.5,3.1c1.9,1.9,3,9.4,3,9.4c0.1,0.3-0.2,0.6-0.5,0.7c0,0,0,0,0,0h-0.2c-0.3,0-7.6-1.1-9.4-3l0,0
	c-2-1.9-2-5.1-0.1-7.1c0,0,0,0,0.1-0.1l0,0C18.3,1.1,21.5,1.1,23.5,3.1C23.4,3.1,23.4,3.1,23.5,3.1L23.5,3.1z M25.1,11.9
	c-0.3-1.9-1.2-6.6-2.5-7.9c-1.5-1.5-3.9-1.5-5.4,0l0,0c-1.5,1.5-1.5,3.9,0,5.4C18.5,10.6,23.2,11.6,25.1,11.9z"/>
<path d="M29,4c-1.3,1.2-2.2,6-2.5,7.9c1.9-0.3,6.6-1.2,7.9-2.5l0,0c1.5-1.5,1.5-3.9,0-5.4l0,0C32.9,2.5,30.5,2.5,29,4
	L29,4z M25.1,12.5c0,0,1.1-7.5,3-9.4c1.9-2,5.1-2,7.1,0c0,0,0,0,0,0l0,0c2,1.9,2,5.1,0,7.1c0,0,0,0,0,0l0,0c-1.8,1.8-9.1,2.9-9.4,3
	h-0.2C25.3,13.2,25.1,12.9,25.1,12.5C25.1,12.5,25.1,12.5,25.1,12.5L25.1,12.5z"/>
</svg>
