<?xml version="1.0" encoding="utf-8"?>
<!-- Generator: Adobe Illustrator 21.0.0, SVG Export Plug-In . SVG Version: 6.00 Build 0)  -->
<svg version="1.1" id="Layer_1" xmlns="http://www.w3.org/2000/svg" xmlns:xlink="http://www.w3.org/1999/xlink" x="0px" y="0px"
	 viewBox="0 0 49.7 49.8" style="enable-background:new 0 0 49.7 49.8;" xml:space="preserve">

<path d="M22.5,1.5c1.9,1.9,3,9.4,3,9.4c0.1,0.3-0.2,0.6-0.5,0.7c0,0,0,0,0,0h-0.2c-0.3,0-7.6-1.1-9.4-3l0,0
	c-2-2-2-5.2,0-7.1S20.6-0.5,22.5,1.5L22.5,1.5z M24.2,10.2c-0.3-1.9-1.2-6.6-2.5-7.9c-1.5-1.4-4-1.4-5.4,0.2c-1.4,1.5-1.4,3.8,0,5.2
	C17.5,9,22.3,9.9,24.2,10.2L24.2,10.2z"/>
<path d="M28,2.3c-1.3,1.3-2.2,6-2.5,7.9c1.9-0.3,6.6-1.2,7.9-2.5l0,0c1.4-1.6,1.2-4-0.4-5.4C31.6,1.1,29.4,1.1,28,2.3z
	 M24.2,10.9c0,0,1.1-7.5,3-9.4c2-2,5.2-2,7.1,0c2,2,2,5.2,0,7.1l0,0l0,0c-1.8,1.8-9.1,2.9-9.4,3h-0.2C24.4,11.5,24.2,11.2,24.2,10.9
	C24.2,10.9,24.2,10.9,24.2,10.9L24.2,10.9z"/>
<path d="M49.1,19.3H0.6C0.3,19.3,0,19,0,18.6v-4.8c0-2,1.6-3.6,3.6-3.6h42.4c2,0,3.6,1.6,3.6,3.6v4.8
	C49.7,19,49.4,19.3,49.1,19.3L49.1,19.3z M1.2,18h47.3v-4.1c0-1.3-1.1-2.4-2.4-2.4H3.6c-1.3,0-2.4,1.1-2.4,2.4V18z"/>
<path d="M47.3,18.8c0-0.3,0.4-0.6,0.7-0.5c0.3,0,0.5,0.3,0.5,0.5v26.7c0,1.2-0.5,2.3-1.3,3.1l0,0
	c-0.8,0.8-1.9,1.2-3,1.2H5.6c-2.4,0-4.3-1.9-4.3-4.3V18.8c0-0.3,0.4-0.6,0.7-0.5c0.3,0,0.5,0.3,0.5,0.5v26.7c0,1.7,1.4,3.1,3.1,3.1
	h38.6c0.8,0,1.6-0.3,2.2-0.9l0,0c0.6-0.6,0.9-1.4,0.9-2.2L47.3,18.8L47.3,18.8z"/>
<path d="M24.3,10.8c0-0.3,0.2-0.7,0.5-0.7c0.3,0,0.7,0.2,0.7,0.5c0,0.1,0,0.1,0,0.2V49c0,0.3-0.2,0.7-0.5,0.7
	c-0.3,0-0.7-0.2-0.7-0.5c0-0.1,0-0.1,0-0.2V10.8z"/>
</svg>
