<?xml version="1.0" encoding="utf-8"?>
<!-- Generator: Adobe Illustrator 21.0.0, SVG Export Plug-In . SVG Version: 6.00 Build 0)  -->
<svg version="1.1" id="Layer_1" xmlns="http://www.w3.org/2000/svg" xmlns:xlink="http://www.w3.org/1999/xlink" x="0px" y="0px"
	 viewBox="0 0 108.5 108.5" style="enable-background:new 0 0 108.5 108.5;" xml:space="preserve">
<g>
	<path d="M108.5,42.6c0-1.6-1.2-2.6-3.7-3l-32.7-4.8L57.4,5.2c-0.8-1.8-1.9-2.7-3.2-2.7S51.8,3.4,51,5.2L36.4,34.8L3.6,39.6
		C1.2,40,0,41,0,42.6c0,0.9,0.5,2,1.6,3.1l23.7,23.1l-5.6,32.6c-0.1,0.6-0.1,1-0.1,1.3c0,0.9,0.2,1.7,0.7,2.3
		c0.5,0.6,1.1,0.9,2.1,0.9c0.8,0,1.7-0.3,2.6-0.8l29.3-15.4l29.3,15.4c0.9,0.5,1.8,0.8,2.6,0.8c0.9,0,1.5-0.3,2-0.9s0.7-1.4,0.7-2.3
		c0-0.6,0-1-0.1-1.3l-5.6-32.6l23.7-23.1C107.9,44.6,108.5,43.5,108.5,42.6"/>
</g>
</svg>
