<?xml version="1.0" encoding="utf-8"?>
<!-- Generator: Adobe Illustrator 21.0.0, SVG Export Plug-In . SVG Version: 6.00 Build 0)  -->
<svg version="1.1" id="Layer_1" xmlns="http://www.w3.org/2000/svg" xmlns:xlink="http://www.w3.org/1999/xlink" x="0px" y="0px"
	 viewBox="0 0 61.5 61.5" style="enable-background:new 0 0 61.5 61.5;" xml:space="preserve">

<path d="M7.6,49c0.3,0,0.6,0.4,0.5,0.7c0,0.3-0.3,0.5-0.5,0.5H3.1c-1.7,0-3.1-1.4-3.1-3V18.6c0-1.7,1.4-3.1,3.1-3.1H40
	c1.7,0,3.1,1.4,3,3.1v31c0,0.3-0.3,0.6-0.6,0.6H20.1c-0.3,0-0.6-0.4-0.5-0.7c0-0.3,0.3-0.5,0.5-0.5h21.7V18.6c0-1-0.8-1.8-1.8-1.9
	H3.1c-1,0-1.9,0.8-1.9,1.9l0,0v28.6c0,1,0.8,1.8,1.9,1.8L7.6,49L7.6,49z"/>
<path d="M42.5,21.1c-0.3,0-0.6-0.4-0.5-0.7c0-0.3,0.3-0.5,0.5-0.5h8.3c1.2,0,2.4,0.5,3.3,1.4l0,0c0.9,0.9,1.4,2,1.3,3.3
	v0.7c0,0.3-0.3,0.6-0.6,0.6H42.5c-0.3,0-0.6-0.4-0.5-0.7c0-0.3,0.3-0.5,0.5-0.5h11.7v-0.1c0-0.9-0.4-1.8-1-2.4l0,0
	c-0.6-0.6-1.5-1-2.4-1L42.5,21.1L42.5,21.1z"/>
<path d="M42.7,34.7c-0.3,0-0.6-0.4-0.5-0.7c0-0.3,0.3-0.5,0.5-0.5h13.1c3.2,0,5.7,2.6,5.7,5.7v10.3
	c0,0.3-0.3,0.6-0.6,0.6h-4c-0.3,0-0.6-0.4-0.5-0.7c0-0.3,0.3-0.5,0.5-0.5h3.3v-9.7c0-2.5-2-4.5-4.5-4.5H42.7z"/>
<path d="M44.2,49c0.3,0,0.6,0.4,0.5,0.7c0,0.3-0.3,0.5-0.5,0.5h-1.9c-0.3,0-0.6-0.4-0.5-0.7c0-0.3,0.3-0.5,0.5-0.5H44.2
	z"/>
<path d="M53,25.4c-0.1-0.3,0.1-0.7,0.5-0.7c0.3-0.1,0.7,0.1,0.7,0.4l2.2,8.9c0.1,0.3-0.1,0.7-0.5,0.7
	c-0.3,0.1-0.7-0.1-0.7-0.5l0,0L53,25.4z"/>
<path d="M60.8,44h-1.6c-1,0-1.9-0.4-2.6-1.1l0,0c-0.7-0.7-1-1.6-1-2.6v-1.8c0-0.3,0.3-0.6,0.6-0.6h4.7
	c0.3,0,0.6,0.3,0.6,0.6v4.8C61.5,43.7,61.2,44,60.8,44L60.8,44z M59.2,42.8h1v-3.6h-3.5v1.1c0,0.6,0.2,1.3,0.7,1.7l0,0
	C57.9,42.5,58.5,42.8,59.2,42.8L59.2,42.8z"/>
<path d="M20.6,49.6c0,1.8-0.7,3.5-2,4.8l0,0c-2.6,2.6-6.9,2.6-9.5,0l0,0c-2.6-2.6-2.6-6.9,0-9.5s6.9-2.6,9.5,0
	C19.9,46.1,20.6,47.8,20.6,49.6L20.6,49.6z M17.8,53.5c2.1-2.2,2.1-5.6,0-7.8s-5.6-2.1-7.8,0c-2.1,2.2-2.1,5.6,0,7.8l0,0
	C12.1,55.6,15.6,55.6,17.8,53.5z"/>
<path d="M16.2,49.6c0,1.3-1,2.3-2.3,2.3c-1.3,0-2.3-1-2.3-2.3s1-2.3,2.3-2.3c0.6,0,1.2,0.2,1.6,0.7
	C15.9,48.4,16.2,49,16.2,49.6z M14.6,50.3c0.4-0.4,0.4-1,0-1.4c-0.4-0.4-1-0.4-1.4,0c-0.4,0.4-0.4,1,0,1.4c0.2,0.2,0.4,0.3,0.7,0.3
	C14.2,50.6,14.4,50.5,14.6,50.3z"/>
<path d="M57.3,49.6c0,1.8-0.7,3.5-2,4.8l0,0c-2.6,2.6-6.9,2.6-9.5,0l0,0c-2.6-2.6-2.6-6.9,0-9.5c2.6-2.6,6.9-2.6,9.5,0
	C56.5,46.1,57.2,47.8,57.3,49.6L57.3,49.6z M54.4,53.5c2.1-2.2,2.1-5.6,0-7.8s-5.6-2.1-7.8,0c-2.1,2.2-2.1,5.6,0,7.8l0,0
	C48.8,55.6,52.3,55.6,54.4,53.5z"/>
<path d="M52.8,49.6c0,1.3-1,2.3-2.3,2.3s-2.3-1-2.3-2.3s1-2.3,2.3-2.3c0.6,0,1.2,0.2,1.6,0.7
	C52.5,48.4,52.8,49,52.8,49.6z M51.3,50.3c0.4-0.4,0.4-1,0-1.4c-0.4-0.4-1-0.4-1.4,0c-0.4,0.4-0.4,1,0,1.4c0.2,0.2,0.4,0.3,0.7,0.3
	C50.8,50.6,51.1,50.5,51.3,50.3z"/>
<path d="M18.6,6.6c1.9,1.9,3,9.4,3,9.4c0.1,0.3-0.2,0.6-0.5,0.7c0,0,0,0,0,0h-0.2c-0.3,0-7.6-1.1-9.4-3l0,0
	c-2-1.9-2-5.1,0-7.1c0,0,0,0,0,0l0,0C13.5,4.7,16.6,4.6,18.6,6.6C18.6,6.6,18.6,6.6,18.6,6.6L18.6,6.6z M20.3,15.4
	c-0.3-1.9-1.2-6.6-2.5-7.9c-1.5-1.5-3.9-1.4-5.4,0.1c-1.4,1.5-1.4,3.8,0,5.2l0,0C13.6,14.1,18.3,15,20.3,15.4L20.3,15.4z"/>
<path d="M24.1,7.5c-1.2,1.3-2.1,6-2.5,7.9c1.9-0.3,6.6-1.2,7.9-2.5c1.4-1.5,1.4-4-0.2-5.4C27.9,6.1,25.6,6.1,24.1,7.5
	L24.1,7.5L24.1,7.5z M20.3,16c0,0,1.1-7.4,2.9-9.4l0,0c1.9-2,5.1-2,7.1-0.1c0,0,0,0,0.1,0.1l0,0c2,1.9,2,5.1,0.1,7.1
	c0,0,0,0-0.1,0.1c-1.8,1.8-9.1,2.9-9.4,3h-0.2C20.4,16.8,20.2,16.5,20.3,16C20.2,16.1,20.2,16.1,20.3,16L20.3,16z"/>
</svg>
