<?xml version="1.0" encoding="iso-8859-1"?>
<!-- Generator: Adobe Illustrator 21.0.0, SVG Export Plug-In . SVG Version: 6.00 Build 0)  -->
<svg version="1.1" id="&#x421;&#x43B;&#x43E;&#x439;_1"
	 xmlns="http://www.w3.org/2000/svg" xmlns:xlink="http://www.w3.org/1999/xlink" x="0px" y="0px" viewBox="0 0 92.97 92.97"
	 style="enable-background:new 0 0 92.97 92.97;" xml:space="preserve">
<path d="M46.485,47.701c-13.151,0-23.851-10.699-23.851-23.851S33.333,0,46.485,0s23.851,10.699,23.851,23.851
	S59.636,47.701,46.485,47.701z M46.485,6c-9.843,0-17.851,8.008-17.851,17.851s8.008,17.851,17.851,17.851
	s17.851-8.008,17.851-17.851S56.328,6,46.485,6z"/>
<path d="M80.645,92.97h-68.32c-1.657,0-3-1.343-3-3V71.71c0-15.109,9.022-28.597,22.985-34.363c1.529-0.632,3.285,0.097,3.917,1.628
	c0.633,1.531-0.096,3.286-1.627,3.918C22.89,47.728,15.325,59.04,15.325,71.71v15.26h62.32V71.71c0-8.32-3.24-16.147-9.123-22.04
	c-2.928-2.928-6.343-5.208-10.149-6.776c-1.532-0.631-2.263-2.384-1.631-3.917c0.631-1.532,2.384-2.262,3.916-1.631
	c4.542,1.871,8.616,4.59,12.108,8.083c7.016,7.027,10.879,16.36,10.879,26.281v18.26C83.645,91.627,82.302,92.97,80.645,92.97z"/>
</svg>
