<?xml version="1.0" encoding="utf-8"?>
<!-- Generator: Adobe Illustrator 21.0.0, SVG Export Plug-In . SVG Version: 6.00 Build 0)  -->
<svg version="1.1" id="Layer_1" xmlns="http://www.w3.org/2000/svg" xmlns:xlink="http://www.w3.org/1999/xlink" x="0px" y="0px"
	 viewBox="0 0 53.7 53.5" style="enable-background:new 0 0 53.7 53.5;" xml:space="preserve">

<path d="M32.8,8.6c-0.3,0-0.6-0.4-0.5-0.7c0-0.3,0.3-0.5,0.5-0.5H43c1,0,1.9,0.4,2.6,1.1l0,0c0.7,0.7,1.1,1.6,1.1,2.6
	v3.6c0,0.3-0.2,0.7-0.5,0.7c-0.3,0-0.7-0.2-0.7-0.5c0-0.1,0-0.1,0-0.2V11c0-1.3-1.1-2.4-2.4-2.4c0,0,0,0,0,0H32.8z"/>
<path d="M13.1,7.3c0.3,0,0.6,0.4,0.5,0.7c0,0.3-0.3,0.5-0.5,0.5H3.9c-1.5,0-2.7,1.2-2.7,2.7S2.4,14,3.9,14
	c0.3,0,0.7,0.2,0.7,0.5c0,0.3-0.2,0.7-0.5,0.7c-0.1,0-0.1,0-0.2,0c-2.2,0-3.9-1.8-3.9-3.9c0-2.2,1.8-3.9,3.9-3.9
	C3.9,7.3,13.1,7.3,13.1,7.3z"/>
<path d="M3.9,15.3c-0.3,0-0.6-0.4-0.5-0.7c0-0.3,0.3-0.5,0.5-0.5h45.3c1.2,0,2.3,0.5,3.2,1.3l0,0c0.8,0.8,1.3,2,1.3,3.1
	V49c0,2.5-2,4.5-4.5,4.5H4.5C2,53.5,0,51.5,0,49c0,0,0,0,0,0V11.7c0-0.3,0.4-0.6,0.7-0.5c0.3,0,0.5,0.3,0.5,0.5V49
	c0,1.8,1.4,3.2,3.2,3.2h44.8c1.8,0,3.2-1.4,3.2-3.2c0,0,0,0,0,0V18.5c0-0.9-0.3-1.7-0.9-2.3l0,0c-0.6-0.6-1.4-0.9-2.3-0.9
	C49.3,15.2,3.9,15.2,3.9,15.3z"/>
<path d="M41,38.6h11.4v-9.7H41c-0.8,0-1.6,0.3-2.2,0.9l0,0c-0.6,0.6-0.9,1.4-0.9,2.2v3.5C37.9,37.2,39.3,38.6,41,38.6
	L41,38.6z M53,39.8H41c-2.4,0-4.3-1.9-4.3-4.3v0V32c0-1.1,0.5-2.2,1.2-3l0,0c0.8-0.8,1.9-1.3,3.1-1.3h12c0.3,0,0.6,0.3,0.6,0.6v11
	C53.6,39.6,53.3,39.9,53,39.8L53,39.8z"/>
<path d="M44.8,33.8c0,1.3-1.1,2.4-2.4,2.4c-0.7,0-1.3-0.3-1.7-0.7l0,0c-1-1-1-2.5,0-3.5l0,0c1-1,2.5-1,3.5,0
	C44.5,32.5,44.8,33.1,44.8,33.8L44.8,33.8z M43.2,34.6c0.5-0.5,0.5-1.2,0-1.7s-1.2-0.5-1.7,0l0,0c-0.5,0.5-0.5,1.2,0,1.7l0,0
	C42,35.1,42.7,35.1,43.2,34.6L43.2,34.6z"/>
<path d="M33.1,14.8c-0.1,0.3-0.5,0.5-0.8,0.3c-0.3-0.1-0.5-0.5-0.3-0.8l0,0c0.2-0.6,0.4-1.2,0.5-1.8
	c1-5.2-2.4-10.2-7.6-11.2S14.6,3.8,13.6,9c-0.2,1.2-0.2,2.4,0,3.6c0.1,0.6,0.3,1.2,0.5,1.8c0.1,0.3,0,0.7-0.3,0.8s-0.7,0-0.8-0.3
	l0,0c-0.3-0.6-0.5-1.3-0.6-2C11.2,7,15.1,1.3,20.9,0.1s11.6,2.7,12.7,8.6c0.3,1.4,0.3,2.7,0,4.1C33.5,13.5,33.3,14.2,33.1,14.8z"/>
<path d="M19.9,10c-0.3,0-0.6-0.4-0.5-0.7c0-0.3,0.3-0.5,0.5-0.5h6.6c0.3,0,0.6,0.4,0.5,0.7c0,0.3-0.3,0.5-0.5,0.5H19.9z
	"/>
<path d="M19.9,7.7c-0.3,0-0.6-0.4-0.5-0.7c0-0.3,0.3-0.5,0.5-0.5h6.6c0.3,0,0.6,0.4,0.5,0.7c0,0.3-0.3,0.5-0.5,0.5H19.9
	z"/>
<path d="M22.6,9.5c0-0.3,0.2-0.7,0.5-0.7c0.3,0,0.7,0.2,0.7,0.5c0,0.1,0,0.1,0,0.2v5.1c0,0.3-0.4,0.6-0.7,0.5
	c-0.3,0-0.5-0.3-0.5-0.5V9.5z"/>
</svg>
