<?xml version="1.0" encoding="utf-8"?>
<!-- Generator: Adobe Illustrator 21.0.0, SVG Export Plug-In . SVG Version: 6.00 Build 0)  -->
<svg version="1.1" id="Layer_1" xmlns="http://www.w3.org/2000/svg" xmlns:xlink="http://www.w3.org/1999/xlink" x="0px" y="0px"
	 viewBox="0 0 716.6 97.7" style="enable-background:new 0 0 716.6 97.7;" xml:space="preserve">
<style type="text/css">
	.st0{fill-rule:evenodd;clip-rule:evenodd; fill: #ffffff;}
</style>
<g>
	<path class="st0" d="M8.8,1.6H2.2C1,1.6,0,2.6,0,3.8V94c0,1.2,1,2.2,2.2,2.2h6.6c1.2,0,2.2-1,2.2-2.2V3.8C11,2.6,10,1.6,8.8,1.6z"
		/>
	<path class="st0" d="M127.3,1.6H121c-1.2,0-2.2,1-2.2,2.2v71.4c0,1.2-0.6,1.4-1.4,0.5L58.6,3.3c-0.8-0.9-2.4-1.7-3.6-1.7h-5.9
		c-1.2,0-2.2,1-2.2,2.2V94c0,1.2,1,2.2,2.2,2.2h6.3c1.2,0,2.2-1,2.2-2.2V20.8c0-1.2,0.6-1.4,1.4-0.5l60.3,74.1
		c0.8,0.9,2.4,1.7,3.6,1.7h4.3c1.2,0,2.2-1,2.2-2.2V3.8C129.6,2.6,128.5,1.6,127.3,1.6z"/>
	<path class="st0" d="M224.7,1.6h-72.3c-1.2,0-2.2,1-2.2,2.2v5.5c0,1.2,1,2.2,2.2,2.2h28.3c1.2,0,2.2,1,2.2,2.2V94
		c0,1.2,1,2.2,2.2,2.2h6.7c1.2,0,2.2-1,2.2-2.2V13.6c0-1.2,1-2.2,2.2-2.2h28.3c1.2,0,2.2-1,2.2-2.2V3.8C227,2.6,226,1.6,224.7,1.6z"
		/>
	<path class="st0" d="M316.7,86.4h-55.8c-1.2,0-2.2-1-2.2-2.2V55.5c0-1.2,1-2.2,2.2-2.2H303c1.2,0,2.2-1,2.2-2.2v-5.4
		c0-1.2-1-2.2-2.2-2.2h-42.1c-1.2,0-2.2-1-2.2-2.2V13.5c0-1.2,1-2.2,2.2-2.2H316c1.2,0,2.2-1,2.2-2.2V3.8c0-1.2-1-2.2-2.2-2.2h-66.1
		c-1.2,0-2.2,1-2.2,2.2V94c0,1.2,1,2.2,2.2,2.2h66.8c1.2,0,2.2-1,2.2-2.2v-5.4C319,87.4,318,86.4,316.7,86.4z"/>
	<path class="st0" d="M508.7,1.6h-72.3c-1.2,0-2.2,1-2.2,2.2v5.5c0,1.2,1,2.2,2.2,2.2h28.3c1.2,0,2.2,1,2.2,2.2V94
		c0,1.2,1,2.2,2.2,2.2h6.7c1.2,0,2.2-1,2.2-2.2V13.6c0-1.2,1-2.2,2.2-2.2h28.3c1.2,0,2.2-1,2.2-2.2V3.8
		C510.9,2.6,509.9,1.6,508.7,1.6z"/>
	<path class="st0" d="M570.5,0c-29.7,0-50,22.8-50,49c0,26.2,20,48.7,49.7,48.7c29.7,0,50-22.8,50-49C620.2,22.6,600.2,0,570.5,0
		L570.5,0z M570.5,87.9L570.5,87.9c-22.3,0-38.5-17.5-38.5-39.1c0-21.6,15.9-38.9,38.2-38.9c22.3,0,38.5,17.5,38.5,39.1
		C608.7,70.6,592.8,87.9,570.5,87.9z"/>
	<path class="st0" d="M402.9,71.5L402.9,71.5l-10.9-14c15.3-2.7,26.5-11.9,26.5-27.7c0-17-13.8-28.2-35.3-28.2h-39.8
		c-1.2,0-2.2,1-2.2,2.2V94c0,1.2,1,2.2,2.2,2.2h6.6c1.2,0,2.2-1,2.2-2.2V13.6c0-1.2,1-2.2,2.2-2.2h27.9c15.8,0,25,7,25,18.8
		c0,11.9-8.8,17.8-23,19.8c-1.6,0.2-6.1,0.3-5.9,5.2c0.1,1.7,1.4,3.6,1.4,3.6c0.6,1,1.2,1.8,1.6,2.3l5.7,7.4l2.3,3l17.6,22.9
		c0.7,1,2.3,1.7,3.6,1.7h9.1c1.2,0,1.6-0.8,0.9-1.7L402.9,71.5z"/>
	<path class="st0" d="M680.1,1.6h-34.3c-1.2,0-2.2,1-2.2,2.2V94c0,1.2,1,2.2,2.2,2.2h6.6c1.2,0,2.2-1,2.2-2.2V13.6
		c0-1.2,1-2.2,2.2-2.2h22.5c15.8,0,26.2,7,26.2,20.7c0,11.7-9.2,19.8-23.6,20.8h-3.1c-1.2,0-2.2,1-2.2,2.2v5.4c0,1.2,1,2.2,2.2,2.2
		h3.4c19.4-0.7,34.5-11.7,34.5-30.9C716.6,13,702.1,1.6,680.1,1.6z"/>
</g>
</svg>
